<svg id="svg" version="1.1" xmlns="http://www.w3.org/2000/svg" xmlns:xlink="http://www.w3.org/1999/xlink" width="400" height="400" viewBox="0, 0, 400,400"><g id="svgg"><path id="path0" d="M253.277 0.354 C 251.260 0.613,250.420 1.182,250.406 2.300 C 250.402 2.614,249.815 2.800,248.823 2.800 C 247.762 2.800,247.074 3.036,246.723 3.522 C 246.435 3.919,245.570 4.419,244.800 4.632 C 243.984 4.859,243.235 5.392,243.005 5.910 C 242.788 6.400,242.312 6.800,241.949 6.800 C 241.584 6.800,241.179 7.230,241.047 7.756 C 240.901 8.335,240.412 8.811,239.803 8.963 C 239.252 9.102,238.800 9.442,238.800 9.720 C 238.800 9.998,238.260 10.428,237.600 10.678 C 236.795 10.982,236.400 11.405,236.400 11.965 C 236.400 12.533,236.144 12.800,235.600 12.800 C 235.067 12.800,234.800 13.067,234.800 13.600 C 234.800 14.104,234.533 14.400,234.080 14.400 C 233.158 14.400,232.400 15.158,232.400 16.080 C 232.400 16.533,232.104 16.800,231.600 16.800 C 231.067 16.800,230.800 17.067,230.800 17.600 C 230.800 18.104,230.533 18.400,230.080 18.400 C 229.175 18.400,228.400 19.154,228.400 20.033 C 228.400 20.404,228.040 20.801,227.600 20.916 C 227.160 21.031,226.800 21.369,226.800 21.668 C 226.800 21.966,226.395 22.388,225.900 22.605 C 225.405 22.822,224.944 23.394,224.875 23.875 C 224.798 24.421,224.421 24.798,223.875 24.875 C 223.394 24.944,222.827 25.394,222.616 25.875 C 222.404 26.357,221.909 26.835,221.516 26.938 C 221.122 27.041,220.800 27.392,220.800 27.719 C 220.800 28.046,220.353 28.426,219.806 28.563 C 219.193 28.717,218.717 29.193,218.563 29.806 C 218.407 30.426,218.029 30.800,217.557 30.800 C 217.067 30.800,216.800 31.082,216.800 31.600 C 216.800 32.104,216.533 32.400,216.080 32.400 C 215.158 32.400,214.400 33.158,214.400 34.080 C 214.400 34.533,214.104 34.800,213.600 34.800 C 213.067 34.800,212.800 35.067,212.800 35.600 C 212.800 36.055,212.533 36.400,212.181 36.400 C 211.841 36.400,211.256 36.939,210.881 37.597 C 210.507 38.256,209.998 38.796,209.750 38.797 C 209.503 38.799,209.192 39.340,209.060 40.000 C 208.869 40.953,208.612 41.200,207.810 41.200 C 207.079 41.200,206.800 41.413,206.800 41.972 C 206.800 42.468,206.478 42.790,205.900 42.872 C 205.405 42.942,204.822 43.407,204.604 43.904 C 204.386 44.401,203.891 44.908,203.504 45.031 C 203.117 45.153,202.800 45.492,202.800 45.784 C 202.800 46.075,202.353 46.426,201.806 46.563 C 201.207 46.713,200.717 47.192,200.572 47.768 C 200.440 48.294,199.987 48.815,199.566 48.925 C 199.145 49.035,198.800 49.392,198.800 49.719 C 198.800 50.046,198.353 50.426,197.806 50.563 C 197.204 50.714,196.717 51.192,196.570 51.777 C 196.437 52.308,196.074 52.839,195.764 52.959 C 195.454 53.078,195.200 53.406,195.200 53.688 C 195.200 53.970,194.300 54.993,193.200 55.960 C 192.100 56.928,191.200 58.053,191.200 58.460 C 191.200 58.929,190.912 59.200,190.414 59.200 C 189.525 59.200,188.800 60.304,188.800 61.659 C 188.800 62.174,188.322 62.951,187.700 63.446 C 186.650 64.283,186.594 64.508,186.462 68.382 L 186.324 72.441 187.543 72.901 C 188.625 73.309,188.776 73.566,188.881 75.178 C 188.981 76.708,189.173 77.076,190.100 77.519 C 190.705 77.807,191.200 78.304,191.200 78.622 C 191.200 78.940,191.425 79.201,191.700 79.203 C 191.975 79.204,192.507 79.744,192.881 80.403 C 193.446 81.396,193.817 81.600,195.050 81.600 C 195.905 81.600,196.866 81.898,197.310 82.300 C 197.857 82.795,198.754 83.000,200.371 83.000 C 202.015 83.000,202.854 82.803,203.357 82.300 C 203.742 81.915,204.640 81.600,205.353 81.600 C 206.330 81.600,206.868 81.304,207.537 80.400 C 208.025 79.740,208.649 79.200,208.924 79.200 C 209.731 79.200,213.600 74.911,213.600 74.017 C 213.600 73.568,213.797 73.200,214.037 73.200 C 214.538 73.200,216.317 71.916,218.103 70.265 C 218.779 69.641,219.752 68.970,220.266 68.775 C 220.813 68.567,221.200 68.090,221.200 67.623 C 221.200 66.718,223.899 63.600,224.684 63.600 C 224.969 63.600,225.200 63.149,225.200 62.590 C 225.200 61.879,225.498 61.467,226.207 61.197 C 226.761 60.987,227.387 60.361,227.597 59.807 C 227.808 59.253,228.255 58.800,228.590 58.800 C 228.926 58.800,229.200 58.548,229.200 58.239 C 229.200 57.931,229.740 57.490,230.400 57.260 C 231.208 56.978,231.600 56.573,231.600 56.021 C 231.600 55.467,231.860 55.200,232.400 55.200 C 232.933 55.200,233.200 54.933,233.200 54.400 C 233.200 53.896,233.467 53.600,233.920 53.600 C 234.842 53.600,235.600 52.842,235.600 51.920 C 235.600 51.467,235.896 51.200,236.400 51.200 C 236.933 51.200,237.200 50.933,237.200 50.400 C 237.200 49.856,237.467 49.600,238.035 49.600 C 238.595 49.600,239.018 49.205,239.322 48.400 C 239.572 47.740,239.994 47.200,240.261 47.200 C 240.528 47.200,240.847 46.883,240.969 46.496 C 241.092 46.109,241.599 45.614,242.096 45.396 C 242.593 45.178,243.056 44.606,243.125 44.125 C 243.202 43.579,243.579 43.202,244.125 43.125 C 244.606 43.056,245.178 42.593,245.396 42.096 C 245.614 41.599,246.109 41.092,246.496 40.969 C 246.883 40.847,247.200 40.528,247.200 40.261 C 247.200 39.994,247.740 39.572,248.400 39.322 C 249.174 39.030,249.600 38.590,249.600 38.081 C 249.600 37.630,249.941 37.204,250.400 37.084 C 250.840 36.969,251.200 36.588,251.200 36.237 C 251.200 35.887,251.524 35.600,251.920 35.600 C 252.842 35.600,253.600 34.842,253.600 33.920 C 253.600 33.524,253.887 33.200,254.237 33.200 C 254.588 33.200,254.959 32.878,255.062 32.484 C 255.165 32.091,255.643 31.596,256.125 31.384 C 256.606 31.173,257.058 30.595,257.128 30.100 C 257.207 29.544,257.533 29.200,257.981 29.200 C 258.380 29.200,258.801 28.840,258.916 28.400 C 259.069 27.815,259.462 27.600,260.377 27.600 C 261.808 27.600,263.600 26.574,263.600 25.754 C 263.600 25.304,264.844 25.200,270.200 25.200 C 275.749 25.200,276.800 25.294,276.800 25.790 C 276.800 26.473,278.780 27.600,279.980 27.600 C 280.431 27.600,280.800 27.857,280.800 28.171 C 280.800 28.486,281.700 29.326,282.800 30.039 L 284.800 31.335 284.800 38.064 C 284.800 44.360,284.852 44.825,285.600 45.293 C 286.157 45.640,286.400 46.226,286.400 47.216 C 286.400 48.783,286.976 49.600,288.080 49.600 C 288.533 49.600,288.800 49.896,288.800 50.400 C 288.800 50.922,289.067 51.200,289.566 51.200 C 290.033 51.200,290.541 51.669,290.864 52.400 C 291.156 53.060,291.621 53.600,291.898 53.600 C 292.174 53.600,292.400 53.779,292.400 53.999 C 292.400 54.218,293.030 55.095,293.800 55.947 C 294.570 56.800,295.200 57.700,295.200 57.948 C 295.200 58.197,295.435 58.400,295.722 58.400 C 296.008 58.400,296.854 59.030,297.600 59.800 C 298.346 60.570,299.282 61.200,299.678 61.200 C 300.107 61.200,300.400 61.493,300.400 61.920 C 300.400 62.842,301.158 63.600,302.080 63.600 C 302.533 63.600,302.800 63.896,302.800 64.400 C 302.800 64.933,303.067 65.200,303.600 65.200 C 304.104 65.200,304.400 65.467,304.400 65.920 C 304.400 66.842,305.158 67.600,306.080 67.600 C 306.533 67.600,306.800 67.896,306.800 68.400 C 306.800 68.989,307.067 69.200,307.810 69.200 C 308.612 69.200,308.869 69.447,309.060 70.400 C 309.192 71.060,309.504 71.600,309.754 71.600 C 310.003 71.600,310.432 71.960,310.707 72.400 C 310.982 72.840,311.565 73.200,312.003 73.200 C 312.586 73.200,312.800 73.468,312.800 74.200 C 312.800 74.933,313.013 75.200,313.600 75.200 C 314.133 75.200,314.400 75.467,314.400 76.000 C 314.400 76.444,314.667 76.800,315.000 76.800 C 315.330 76.800,315.600 76.980,315.600 77.200 C 315.600 77.420,315.870 77.600,316.200 77.600 C 316.533 77.600,316.800 77.956,316.800 78.400 C 316.800 78.933,317.067 79.200,317.600 79.200 C 318.104 79.200,318.400 79.467,318.400 79.920 C 318.400 80.842,319.158 81.600,320.080 81.600 C 320.533 81.600,320.800 81.896,320.800 82.400 C 320.800 82.901,321.067 83.200,321.514 83.200 C 321.906 83.200,322.546 83.740,322.936 84.400 C 323.326 85.060,323.884 85.600,324.176 85.600 C 324.468 85.600,324.801 85.960,324.916 86.400 C 325.041 86.879,325.462 87.200,325.963 87.200 C 326.423 87.200,326.800 87.438,326.800 87.728 C 326.800 88.499,328.853 90.649,329.900 90.974 C 330.445 91.144,330.800 91.573,330.800 92.064 C 330.800 92.534,331.131 92.961,331.587 93.081 C 332.019 93.194,332.479 93.618,332.607 94.023 C 332.736 94.428,333.202 94.874,333.643 95.014 C 334.085 95.154,334.611 95.703,334.813 96.234 C 335.034 96.816,335.502 97.200,335.990 97.200 C 336.438 97.200,336.800 97.464,336.800 97.791 C 336.800 98.116,337.250 98.676,337.800 99.037 C 338.350 99.397,338.800 99.922,338.800 100.203 C 338.800 100.774,339.670 101.200,340.833 101.200 C 341.255 101.200,341.600 101.396,341.600 101.636 C 341.600 101.875,342.392 102.841,343.360 103.782 C 344.329 104.723,345.186 105.829,345.265 106.240 C 345.364 106.759,345.884 107.065,346.958 107.240 C 347.810 107.378,348.672 107.786,348.874 108.146 C 349.075 108.506,349.582 108.800,350.000 108.800 C 352.059 108.800,354.906 109.718,355.096 110.444 C 355.279 111.147,355.756 111.200,361.847 111.200 L 368.400 111.200 368.400 112.426 C 368.400 114.072,369.056 115.200,370.014 115.200 C 370.681 115.200,370.800 115.478,370.800 117.037 C 370.800 118.538,370.946 118.913,371.600 119.084 C 372.343 119.278,372.400 119.630,372.400 124.000 C 372.400 128.370,372.343 128.722,371.600 128.916 C 370.895 129.100,370.800 129.462,370.800 131.963 C 370.800 134.730,370.775 134.800,369.790 134.800 C 369.096 134.800,368.668 135.096,368.421 135.745 C 368.223 136.265,367.777 136.800,367.431 136.933 C 367.084 137.066,366.800 137.541,366.800 137.987 C 366.800 138.545,366.538 138.800,365.965 138.800 C 365.405 138.800,364.982 139.195,364.678 140.000 C 364.428 140.660,364.006 141.200,363.739 141.200 C 363.472 141.200,363.143 141.549,363.008 141.975 C 362.873 142.401,362.366 142.806,361.881 142.875 C 361.328 142.953,360.953 143.328,360.875 143.881 C 360.806 144.366,360.420 144.867,360.018 144.994 C 359.616 145.122,359.198 145.565,359.089 145.979 C 358.981 146.393,358.467 146.792,357.946 146.866 C 357.336 146.952,356.956 147.307,356.877 147.862 C 356.802 148.387,356.372 148.821,355.777 148.970 C 355.240 149.105,354.800 149.470,354.800 149.781 C 354.800 150.092,354.430 150.464,353.977 150.607 C 353.524 150.751,352.989 151.303,352.787 151.834 C 352.585 152.365,352.152 152.800,351.824 152.800 C 351.496 152.800,351.017 153.205,350.759 153.700 C 350.248 154.679,349.594 155.452,347.900 157.077 C 347.295 157.657,346.800 158.372,346.800 158.666 C 346.800 158.960,346.526 159.200,346.190 159.200 C 345.855 159.200,345.412 159.605,345.206 160.100 C 345.000 160.595,344.015 161.808,343.016 162.795 C 342.017 163.782,341.200 164.817,341.200 165.095 C 341.200 165.373,340.930 165.600,340.600 165.600 C 340.270 165.600,340.000 165.870,340.000 166.200 C 340.000 166.530,339.730 166.800,339.400 166.800 C 339.067 166.800,338.800 167.156,338.800 167.600 C 338.800 168.104,338.533 168.400,338.080 168.400 C 337.158 168.400,336.400 169.158,336.400 170.080 C 336.400 170.533,336.104 170.800,335.600 170.800 C 335.067 170.800,334.800 171.067,334.800 171.600 C 334.800 172.044,334.533 172.400,334.200 172.400 C 333.870 172.400,333.600 172.580,333.600 172.800 C 333.600 173.020,333.330 173.200,333.000 173.200 C 332.667 173.200,332.400 173.556,332.400 174.000 C 332.400 174.533,332.133 174.800,331.600 174.800 C 331.025 174.800,330.800 175.067,330.800 175.750 C 330.800 176.486,330.529 176.754,329.600 176.940 C 328.896 177.081,328.400 177.432,328.400 177.790 C 328.400 178.125,328.126 178.400,327.790 178.400 C 327.432 178.400,327.081 178.896,326.940 179.600 C 326.754 180.529,326.486 180.800,325.750 180.800 C 325.067 180.800,324.800 181.025,324.800 181.600 C 324.800 182.133,324.533 182.400,324.000 182.400 C 323.556 182.400,323.200 182.667,323.200 183.000 C 323.200 183.330,323.020 183.600,322.800 183.600 C 322.580 183.600,322.400 183.870,322.400 184.200 C 322.400 184.533,322.044 184.800,321.600 184.800 C 321.067 184.800,320.800 185.067,320.800 185.600 C 320.800 186.040,320.558 186.400,320.262 186.400 C 319.445 186.400,318.400 187.747,318.400 188.800 C 318.400 189.315,318.085 190.085,317.700 190.511 C 316.824 191.480,316.645 199.615,317.493 199.898 C 317.764 199.988,318.175 200.766,318.407 201.627 C 318.718 202.779,319.088 203.257,319.814 203.439 C 320.427 203.593,320.800 203.973,320.800 204.443 C 320.800 204.919,321.081 205.200,321.557 205.200 C 322.019 205.200,322.406 205.569,322.551 206.149 C 322.796 207.124,324.059 207.600,326.401 207.600 C 327.007 207.600,327.726 207.870,328.000 208.200 C 328.707 209.052,333.200 209.052,333.200 208.200 C 333.200 207.758,333.661 207.600,334.950 207.600 C 337.924 207.600,339.110 207.213,339.375 206.156 C 339.507 205.630,339.870 205.200,340.181 205.200 C 340.492 205.200,340.857 204.851,340.992 204.425 C 341.127 203.999,341.634 203.594,342.119 203.525 C 342.732 203.438,343.037 203.080,343.122 202.346 C 343.216 201.540,343.522 201.236,344.422 201.056 C 345.070 200.926,345.600 200.566,345.600 200.257 C 345.600 199.947,345.960 199.599,346.400 199.484 C 346.941 199.343,347.200 198.938,347.200 198.237 C 347.200 197.395,347.390 197.200,348.210 197.200 C 348.904 197.200,349.332 196.904,349.579 196.255 C 349.777 195.735,350.223 195.200,350.569 195.067 C 350.916 194.934,351.200 194.459,351.200 194.013 C 351.200 193.421,351.462 193.200,352.161 193.200 C 352.869 193.200,353.232 192.884,353.540 192.000 C 353.770 191.340,354.238 190.800,354.579 190.800 C 354.921 190.800,355.200 190.533,355.200 190.208 C 355.200 189.882,355.650 189.502,356.200 189.364 C 356.831 189.206,357.200 188.831,357.200 188.347 C 357.200 187.897,357.613 187.423,358.200 187.200 C 358.750 186.991,359.200 186.565,359.200 186.253 C 359.200 185.942,359.650 185.574,360.200 185.436 C 360.852 185.272,361.200 184.905,361.200 184.380 C 361.200 183.937,361.515 183.461,361.900 183.321 C 363.023 182.913,365.191 180.663,365.196 179.900 C 365.198 179.465,365.507 179.200,366.010 179.200 C 366.500 179.200,366.966 178.815,367.191 178.224 C 367.395 177.688,367.930 177.051,368.381 176.810 C 368.831 176.569,369.200 176.121,369.200 175.814 C 369.200 175.507,369.605 175.198,370.100 175.128 C 370.694 175.043,371.046 174.678,371.134 174.054 C 371.208 173.533,371.596 173.022,371.997 172.917 C 372.398 172.812,372.812 172.398,372.917 171.997 C 373.022 171.596,373.533 171.208,374.054 171.134 C 374.694 171.043,375.043 170.694,375.134 170.054 C 375.208 169.532,375.611 169.018,376.034 168.907 C 376.455 168.797,376.800 168.368,376.800 167.953 C 376.800 167.539,377.078 167.200,377.419 167.200 C 377.759 167.200,378.344 166.661,378.719 166.003 C 379.093 165.344,379.517 164.804,379.660 164.803 C 380.312 164.796,382.868 161.758,383.070 160.750 C 383.217 160.015,383.694 159.448,384.447 159.115 C 385.081 158.834,385.600 158.391,385.600 158.129 C 385.600 157.868,385.960 157.540,386.400 157.400 C 386.911 157.238,387.200 156.795,387.200 156.173 C 387.200 155.402,387.407 155.200,388.200 155.200 C 388.750 155.200,389.200 155.046,389.200 154.858 C 389.200 154.671,389.650 154.031,390.200 153.438 C 390.750 152.844,391.200 152.118,391.200 151.823 C 391.200 151.528,391.650 151.174,392.200 151.036 C 393.081 150.815,393.200 150.571,393.200 148.992 C 393.200 147.459,393.317 147.200,394.010 147.200 C 394.875 147.200,395.600 145.841,395.600 144.221 C 395.600 143.630,395.890 143.217,396.400 143.084 C 397.105 142.900,397.200 142.538,397.200 140.045 C 397.200 137.390,397.259 137.200,398.162 136.974 C 399.535 136.629,399.588 136.157,399.595 124.380 C 399.600 113.362,399.519 112.800,397.920 112.800 C 397.287 112.800,397.200 112.415,397.200 109.600 C 397.200 106.933,397.067 106.267,396.400 105.600 C 395.960 105.160,395.600 104.468,395.600 104.061 C 395.600 102.923,394.409 100.800,393.771 100.800 C 393.429 100.800,393.200 100.399,393.200 99.800 C 393.200 99.007,392.998 98.800,392.225 98.800 C 391.378 98.800,391.214 98.567,390.985 97.036 C 390.801 95.810,390.499 95.215,389.994 95.083 C 389.595 94.978,389.208 94.467,389.134 93.946 C 389.046 93.322,388.694 92.957,388.100 92.872 C 387.544 92.793,387.200 92.467,387.200 92.019 C 387.200 91.620,386.840 91.199,386.400 91.084 C 385.640 90.885,385.600 90.538,385.600 84.069 L 385.600 77.264 384.400 77.000 C 383.288 76.756,383.200 76.607,383.200 74.972 C 383.200 73.640,383.004 73.084,382.400 72.707 C 381.879 72.382,381.600 71.774,381.600 70.966 C 381.600 69.767,380.596 68.400,379.715 68.400 C 379.483 68.400,379.199 68.040,379.084 67.600 C 378.969 67.159,378.538 66.800,378.125 66.800 C 377.659 66.800,377.204 66.345,376.922 65.600 C 376.673 64.940,376.205 64.400,375.881 64.400 C 375.558 64.400,375.199 64.040,375.084 63.600 C 374.943 63.059,374.538 62.800,373.837 62.800 C 372.998 62.800,372.800 62.610,372.800 61.800 C 372.800 61.087,372.584 60.800,372.047 60.800 C 371.630 60.800,371.200 60.443,371.084 60.000 C 370.964 59.539,370.538 59.200,370.081 59.200 C 369.564 59.200,369.198 58.845,369.032 58.186 C 368.889 57.615,368.341 57.006,367.779 56.792 C 367.229 56.583,366.687 56.170,366.573 55.874 C 366.460 55.578,365.758 55.097,365.014 54.805 C 364.269 54.513,363.574 53.943,363.468 53.537 C 363.343 53.060,362.909 52.800,362.237 52.800 C 361.364 52.800,361.200 52.620,361.200 51.662 C 361.200 50.528,360.158 49.200,359.269 49.200 C 359.011 49.200,358.800 48.784,358.800 48.275 C 358.800 47.311,356.921 45.200,356.063 45.200 C 355.792 45.200,354.783 44.390,353.821 43.400 C 352.859 42.410,351.907 41.600,351.705 41.600 C 351.189 41.600,349.600 39.844,349.600 39.274 C 349.600 39.013,349.060 38.800,348.400 38.800 C 347.375 38.800,347.200 38.649,347.200 37.763 C 347.200 37.078,346.940 36.657,346.437 36.526 C 346.017 36.416,345.584 35.983,345.474 35.563 C 345.343 35.060,344.922 34.800,344.237 34.800 C 343.351 34.800,343.200 34.625,343.200 33.600 C 343.200 32.602,343.039 32.400,342.247 32.400 C 341.630 32.400,341.219 32.118,341.084 31.600 C 340.969 31.160,340.628 30.800,340.325 30.800 C 340.023 30.800,339.572 30.260,339.322 29.600 C 339.030 28.826,338.590 28.400,338.081 28.400 C 337.630 28.400,337.204 28.059,337.084 27.600 C 336.969 27.160,336.601 26.800,336.265 26.800 C 335.930 26.800,335.598 26.395,335.528 25.900 C 335.436 25.256,335.088 24.964,334.300 24.873 C 333.536 24.785,333.200 24.518,333.200 23.996 C 333.200 23.583,332.873 23.010,332.474 22.723 C 332.074 22.435,331.630 21.885,331.486 21.500 C 331.332 21.086,330.811 20.800,330.213 20.800 C 329.396 20.800,329.200 20.604,329.200 19.787 C 329.200 19.189,328.914 18.668,328.500 18.514 C 328.115 18.370,327.565 17.926,327.277 17.526 C 326.990 17.127,326.405 16.800,325.977 16.800 C 325.424 16.800,325.200 16.524,325.200 15.843 C 325.200 14.798,324.542 14.400,322.814 14.400 C 322.030 14.400,321.631 14.160,321.484 13.600 C 321.313 12.946,320.938 12.800,319.437 12.800 C 317.859 12.800,317.600 12.686,317.600 11.990 C 317.600 10.697,316.026 10.400,309.161 10.400 C 303.854 10.400,302.736 10.299,302.545 9.800 C 302.418 9.470,302.098 9.200,301.832 9.200 C 301.567 9.200,300.951 8.660,300.463 8.000 C 299.824 7.135,299.244 6.800,298.388 6.800 C 297.511 6.800,297.200 6.612,297.200 6.080 C 297.200 5.175,296.446 4.400,295.567 4.400 C 295.196 4.400,294.799 4.040,294.684 3.600 C 294.513 2.946,294.138 2.800,292.637 2.800 C 291.285 2.800,290.800 2.644,290.800 2.210 C 290.800 0.369,263.639 -0.974,253.277 0.354 M125.300 31.044 C 125.025 31.166,124.800 31.522,124.800 31.833 C 124.800 32.575,124.428 32.550,123.543 31.749 C 122.879 31.147,122.719 31.147,121.451 31.749 C 120.697 32.107,119.167 32.400,118.052 32.400 C 116.262 32.400,115.920 32.541,115.137 33.600 C 114.561 34.379,113.897 34.800,113.246 34.800 C 111.735 34.800,109.200 36.713,109.200 37.854 C 109.200 38.631,108.993 38.800,108.043 38.800 C 106.803 38.800,106.233 39.851,106.628 41.412 C 106.773 41.985,106.495 42.386,105.614 42.881 C 104.630 43.433,104.400 43.823,104.400 44.935 C 104.400 45.970,104.204 46.358,103.600 46.516 C 102.830 46.717,102.800 47.062,102.800 55.800 C 102.800 64.538,102.830 64.883,103.600 65.084 C 104.217 65.246,104.400 65.630,104.400 66.767 C 104.400 68.367,104.966 69.200,106.053 69.200 C 106.513 69.200,106.790 69.572,106.873 70.300 C 106.963 71.080,107.257 71.437,107.881 71.525 C 108.366 71.594,108.873 71.999,109.008 72.425 C 109.143 72.851,109.512 73.200,109.827 73.200 C 110.142 73.200,110.400 73.566,110.400 74.013 C 110.400 74.459,110.670 74.929,111.000 75.055 C 111.330 75.182,111.600 75.536,111.600 75.843 C 111.600 76.149,111.870 76.400,112.200 76.400 C 112.530 76.400,112.800 76.593,112.800 76.830 C 112.800 77.066,113.790 78.297,115.000 79.566 C 116.210 80.834,117.200 82.081,117.200 82.336 C 117.200 82.591,117.433 82.800,117.719 82.800 C 118.367 82.800,121.200 85.662,121.200 86.317 C 121.200 86.583,121.554 86.800,121.986 86.800 C 122.418 86.800,122.966 87.163,123.203 87.606 C 123.593 88.335,125.760 89.987,127.639 90.988 C 128.040 91.201,128.420 91.741,128.484 92.188 C 128.561 92.729,128.951 93.041,129.654 93.122 C 130.460 93.216,130.764 93.522,130.944 94.422 C 131.082 95.108,131.435 95.600,131.790 95.600 C 132.133 95.600,132.400 95.950,132.400 96.400 C 132.400 96.844,132.667 97.200,133.000 97.200 C 133.330 97.200,133.600 97.470,133.600 97.800 C 133.600 98.130,133.870 98.400,134.200 98.400 C 134.530 98.400,134.800 98.654,134.800 98.964 C 134.800 99.275,135.340 99.983,136.000 100.539 C 136.660 101.094,137.200 101.721,137.200 101.931 C 137.200 102.142,137.472 102.419,137.803 102.546 C 138.135 102.673,138.614 103.233,138.868 103.789 C 139.169 104.451,139.651 104.800,140.264 104.800 C 141.005 104.800,141.200 105.016,141.200 105.837 C 141.200 106.522,141.460 106.943,141.963 107.074 C 142.383 107.184,142.816 107.617,142.926 108.037 C 143.051 108.515,143.477 108.800,144.068 108.800 C 144.661 108.800,145.157 109.133,145.405 109.698 C 145.622 110.192,146.298 110.834,146.907 111.124 C 147.516 111.414,148.302 112.089,148.653 112.625 C 149.005 113.161,149.520 113.600,149.799 113.600 C 150.078 113.600,150.401 113.960,150.516 114.400 C 150.657 114.941,151.062 115.200,151.763 115.200 C 152.612 115.200,152.800 115.388,152.800 116.237 C 152.800 116.938,153.059 117.343,153.600 117.484 C 154.040 117.599,154.400 117.871,154.400 118.089 C 154.400 118.307,154.844 118.834,155.387 119.261 C 155.930 119.689,156.606 120.525,156.889 121.119 C 157.172 121.714,157.808 122.378,158.302 122.595 C 158.831 122.828,159.200 123.342,159.200 123.848 C 159.200 124.370,159.513 124.789,160.000 124.916 C 160.440 125.031,160.800 125.394,160.800 125.723 C 160.800 126.052,161.340 126.510,162.000 126.740 C 162.790 127.015,163.200 127.430,163.200 127.952 C 163.200 128.394,163.554 128.858,163.998 128.999 C 164.436 129.138,165.651 130.140,166.698 131.224 C 167.744 132.308,168.820 133.197,169.088 133.198 C 169.356 133.199,169.975 133.740,170.463 134.400 C 170.951 135.060,171.587 135.600,171.875 135.600 C 172.164 135.600,172.400 135.875,172.400 136.210 C 172.400 136.568,172.896 136.919,173.600 137.060 C 174.526 137.245,174.800 137.515,174.800 138.242 C 174.800 138.914,175.087 139.257,175.800 139.436 C 176.350 139.574,176.801 139.892,176.802 140.143 C 176.803 140.395,177.433 141.285,178.202 142.122 C 178.971 142.960,179.600 143.771,179.600 143.926 C 179.600 144.081,179.960 144.432,180.400 144.707 C 180.840 144.982,181.200 145.565,181.200 146.003 C 181.200 146.442,181.449 146.800,181.753 146.800 C 182.363 146.800,185.200 149.764,185.200 150.401 C 185.200 150.621,185.478 150.800,185.817 150.800 C 186.157 150.800,187.254 151.689,188.255 152.777 C 189.301 153.912,190.571 154.862,191.238 155.008 C 192.023 155.181,192.480 155.579,192.645 156.235 C 192.786 156.798,193.275 157.304,193.806 157.437 C 194.311 157.564,194.815 158.013,194.925 158.434 C 195.035 158.855,195.399 159.200,195.735 159.200 C 196.070 159.200,196.402 159.605,196.472 160.100 C 196.564 160.744,196.912 161.036,197.700 161.127 C 198.488 161.217,198.800 161.478,198.800 162.046 C 198.800 162.483,199.430 163.488,200.200 164.281 C 200.970 165.074,201.600 165.875,201.600 166.061 C 201.600 166.248,201.870 166.400,202.200 166.400 C 202.530 166.400,202.800 166.665,202.800 166.988 C 202.800 167.311,203.326 167.965,203.970 168.441 C 204.613 168.917,205.247 169.732,205.378 170.253 C 205.508 170.774,205.899 171.200,206.245 171.200 C 206.591 171.200,206.969 171.560,207.084 172.000 C 207.211 172.487,207.630 172.800,208.152 172.800 C 208.658 172.800,209.172 173.169,209.405 173.700 C 209.622 174.195,210.205 174.778,210.700 174.995 C 211.195 175.212,211.600 175.617,211.600 175.895 C 211.600 176.173,211.876 176.400,212.213 176.400 C 212.549 176.400,212.929 176.670,213.055 177.000 C 213.182 177.330,213.515 177.600,213.796 177.600 C 214.077 177.600,214.401 177.960,214.516 178.400 C 214.657 178.941,215.062 179.200,215.763 179.200 C 216.612 179.200,216.800 179.388,216.800 180.237 C 216.800 180.922,217.060 181.343,217.563 181.474 C 217.983 181.584,218.416 182.017,218.526 182.437 C 218.657 182.940,219.078 183.200,219.763 183.200 C 220.612 183.200,220.800 183.388,220.800 184.237 C 220.800 184.938,221.059 185.343,221.600 185.484 C 222.040 185.599,222.400 185.942,222.400 186.247 C 222.400 186.551,222.580 186.800,222.800 186.800 C 223.020 186.800,223.200 187.033,223.200 187.319 C 223.200 187.967,226.062 190.800,226.717 190.800 C 226.983 190.800,227.200 191.229,227.200 191.753 C 227.200 192.370,227.482 192.781,228.000 192.916 C 228.440 193.031,228.800 193.409,228.800 193.755 C 228.800 194.101,229.226 194.492,229.747 194.622 C 230.268 194.753,231.083 195.387,231.559 196.030 C 232.035 196.674,232.689 197.200,233.012 197.200 C 233.335 197.200,233.600 197.470,233.600 197.800 C 233.600 198.130,233.851 198.400,234.157 198.400 C 234.464 198.400,234.818 198.670,234.945 199.000 C 235.071 199.330,235.430 199.600,235.741 199.600 C 236.052 199.600,236.401 199.960,236.516 200.400 C 236.655 200.934,237.062 201.200,237.736 201.200 C 238.541 201.200,238.773 201.424,238.873 202.300 C 238.964 203.088,239.256 203.436,239.900 203.528 C 240.395 203.598,240.800 203.930,240.800 204.265 C 240.800 204.601,241.162 204.970,241.604 205.085 C 242.047 205.201,242.517 205.726,242.649 206.251 C 242.787 206.805,243.281 207.305,243.821 207.441 C 244.427 207.593,244.839 208.068,245.000 208.799 C 245.137 209.425,246.125 210.733,247.223 211.745 C 248.311 212.746,249.200 213.843,249.200 214.183 C 249.200 214.522,249.409 214.800,249.664 214.800 C 249.919 214.800,251.166 215.790,252.434 217.000 C 253.703 218.210,254.934 219.200,255.170 219.200 C 255.407 219.200,255.600 219.470,255.600 219.800 C 255.600 220.130,255.851 220.400,256.157 220.400 C 256.464 220.400,256.818 220.670,256.945 221.000 C 257.071 221.330,257.528 221.600,257.960 221.600 C 258.395 221.600,258.860 221.958,259.000 222.400 C 259.140 222.840,259.492 223.200,259.784 223.200 C 260.075 223.200,260.426 223.650,260.564 224.200 C 260.743 224.913,261.086 225.200,261.758 225.200 C 262.485 225.200,262.755 225.474,262.940 226.400 C 263.072 227.060,263.434 227.600,263.743 227.600 C 264.053 227.600,264.397 227.945,264.507 228.366 C 264.618 228.789,265.132 229.192,265.654 229.266 C 266.311 229.359,266.643 229.705,266.741 230.400 C 266.875 231.355,269.649 234.400,270.385 234.400 C 270.578 234.400,270.855 234.940,271.000 235.600 C 271.183 236.433,271.502 236.800,272.044 236.800 C 272.474 236.800,272.938 237.093,273.075 237.452 C 273.411 238.326,276.072 240.776,276.700 240.789 C 276.975 240.795,277.200 241.070,277.200 241.400 C 277.200 241.730,277.451 242.000,277.757 242.000 C 278.064 242.000,278.418 242.270,278.545 242.600 C 278.671 242.930,279.150 243.200,279.608 243.200 C 280.175 243.200,280.576 243.585,280.860 244.400 C 281.090 245.060,281.510 245.600,281.792 245.600 C 282.075 245.600,282.401 245.960,282.516 246.400 C 282.657 246.941,283.062 247.200,283.763 247.200 C 284.612 247.200,284.800 247.388,284.800 248.237 C 284.800 248.922,285.060 249.343,285.563 249.474 C 285.983 249.584,286.416 250.017,286.526 250.437 C 286.657 250.940,287.078 251.200,287.763 251.200 C 288.629 251.200,288.800 251.382,288.800 252.305 C 288.800 253.064,289.080 253.534,289.693 253.805 C 290.184 254.022,290.793 254.620,291.046 255.133 C 291.678 256.414,294.042 258.800,294.678 258.800 C 294.968 258.800,295.200 259.245,295.200 259.800 C 295.200 260.371,295.431 260.800,295.738 260.800 C 296.035 260.800,297.266 261.774,298.476 262.964 C 299.685 264.154,301.108 265.189,301.637 265.264 C 302.294 265.357,302.643 265.700,302.734 266.346 C 302.808 266.868,303.211 267.382,303.634 267.493 C 304.055 267.603,304.400 267.947,304.400 268.257 C 304.400 268.566,304.930 268.926,305.578 269.056 C 306.478 269.236,306.784 269.540,306.878 270.346 C 306.963 271.080,307.268 271.438,307.881 271.525 C 308.366 271.594,308.873 271.999,309.008 272.425 C 309.143 272.851,309.512 273.200,309.827 273.200 C 310.142 273.200,310.400 273.515,310.400 273.900 C 310.400 274.285,311.030 275.103,311.800 275.717 C 312.570 276.331,313.200 277.070,313.200 277.357 C 313.200 277.645,314.100 278.710,315.200 279.723 C 316.300 280.736,317.200 281.843,317.200 282.183 C 317.200 282.522,317.470 282.800,317.800 282.800 C 318.130 282.800,318.760 283.160,319.200 283.600 C 319.640 284.040,320.180 284.400,320.400 284.400 C 320.620 284.400,320.800 284.630,320.800 284.911 C 320.800 285.598,322.030 286.610,323.433 287.078 C 324.147 287.316,324.663 287.824,324.805 288.430 C 324.943 289.015,325.367 289.449,325.876 289.522 C 326.339 289.590,326.810 289.995,326.922 290.422 C 327.034 290.850,327.399 291.200,327.735 291.200 C 328.070 291.200,328.402 291.605,328.472 292.100 C 328.562 292.733,328.913 293.036,329.654 293.122 C 330.460 293.216,330.764 293.522,330.944 294.422 C 331.074 295.070,331.434 295.600,331.743 295.600 C 332.053 295.600,332.401 295.960,332.516 296.400 C 332.687 297.054,333.062 297.200,334.563 297.200 C 336.093 297.200,336.400 297.325,336.400 297.951 C 336.400 299.515,337.121 299.619,347.250 299.507 L 357.000 299.400 357.127 298.300 C 357.246 297.266,357.371 297.200,359.227 297.200 C 360.842 297.200,361.200 297.073,361.200 296.498 C 361.200 296.102,361.724 295.563,362.400 295.264 C 363.131 294.941,363.600 294.433,363.600 293.966 C 363.600 293.467,363.878 293.200,364.400 293.200 C 364.980 293.200,365.200 292.933,365.200 292.232 C 365.200 291.481,365.470 291.204,366.400 291.000 C 367.195 290.825,367.600 290.492,367.600 290.011 C 367.600 289.612,367.852 289.189,368.160 289.071 C 368.468 288.952,368.848 288.097,369.005 287.170 C 369.188 286.085,369.666 285.161,370.345 284.577 L 371.400 283.669 371.400 276.200 L 371.400 268.731 370.300 267.785 C 369.670 267.243,369.200 266.429,369.200 265.881 C 369.200 265.355,368.840 264.598,368.400 264.200 C 367.947 263.790,367.600 262.968,367.600 262.303 C 367.600 261.368,367.357 261.039,366.400 260.678 C 365.740 260.428,365.200 260.006,365.200 259.739 C 365.200 259.472,364.851 259.143,364.425 259.008 C 363.999 258.873,363.594 258.366,363.525 257.881 C 363.437 257.262,363.080 256.963,362.324 256.876 C 361.493 256.780,361.220 256.507,361.124 255.676 C 361.034 254.895,360.741 254.563,360.054 254.466 C 359.532 254.392,359.018 253.989,358.907 253.566 C 358.797 253.145,358.475 252.800,358.192 252.800 C 357.910 252.800,357.490 252.260,357.260 251.600 C 356.989 250.824,356.568 250.400,356.067 250.400 C 355.630 250.400,355.202 250.052,355.084 249.600 C 354.969 249.160,354.588 248.800,354.237 248.800 C 353.887 248.800,353.600 248.476,353.600 248.080 C 353.600 247.175,352.846 246.400,351.967 246.400 C 351.596 246.400,351.199 246.040,351.084 245.600 C 350.969 245.160,350.601 244.800,350.265 244.800 C 349.930 244.800,349.598 244.395,349.528 243.900 C 349.443 243.306,349.078 242.954,348.454 242.866 C 347.933 242.792,347.422 242.404,347.317 242.003 C 347.212 241.602,346.798 241.188,346.397 241.083 C 345.996 240.978,345.608 240.467,345.534 239.946 C 345.437 239.259,345.105 238.966,344.324 238.876 C 343.493 238.780,343.220 238.507,343.124 237.676 C 343.037 236.920,342.738 236.563,342.119 236.475 C 341.634 236.406,341.127 236.001,340.992 235.575 C 340.857 235.149,340.528 234.800,340.261 234.800 C 339.994 234.800,339.572 234.260,339.322 233.600 C 339.018 232.795,338.595 232.400,338.035 232.400 C 337.538 232.400,337.200 232.142,337.200 231.763 C 337.200 231.412,336.840 231.031,336.400 230.916 C 335.960 230.801,335.600 230.404,335.600 230.033 C 335.600 229.154,334.825 228.400,333.920 228.400 C 333.524 228.400,333.200 228.113,333.200 227.763 C 333.200 227.412,332.850 227.034,332.422 226.922 C 331.995 226.810,331.590 226.332,331.522 225.859 C 331.437 225.258,331.070 224.962,330.300 224.873 C 329.588 224.791,329.198 224.509,329.196 224.073 C 329.190 223.230,326.732 220.800,325.884 220.800 C 325.493 220.800,325.205 220.382,325.127 219.700 C 325.038 218.930,324.742 218.563,324.141 218.478 C 323.668 218.410,323.190 218.005,323.078 217.578 C 322.966 217.150,322.588 216.800,322.237 216.800 C 321.887 216.800,321.600 216.476,321.600 216.080 C 321.600 215.684,321.384 215.144,321.120 214.880 C 320.856 214.616,320.316 214.400,319.920 214.400 C 319.467 214.400,319.200 214.104,319.200 213.600 C 319.200 213.067,318.933 212.800,318.400 212.800 C 317.856 212.800,317.600 212.533,317.600 211.965 C 317.600 211.405,317.205 210.982,316.400 210.678 C 315.740 210.428,315.200 210.006,315.200 209.739 C 315.200 209.472,314.851 209.143,314.425 209.008 C 313.999 208.873,313.594 208.366,313.525 207.881 C 313.437 207.262,313.080 206.963,312.325 206.876 C 311.574 206.789,311.212 206.489,311.125 205.880 C 311.056 205.399,310.506 204.771,309.900 204.482 C 309.295 204.193,308.800 203.696,308.800 203.378 C 308.800 203.060,308.548 202.800,308.239 202.800 C 307.931 202.800,307.490 202.260,307.260 201.600 C 306.989 200.824,306.568 200.400,306.067 200.400 C 305.630 200.400,305.202 200.052,305.084 199.600 C 304.969 199.160,304.588 198.800,304.237 198.800 C 303.887 198.800,303.600 198.476,303.600 198.080 C 303.600 197.175,302.846 196.400,301.967 196.400 C 301.596 196.400,301.199 196.040,301.084 195.600 C 300.969 195.160,300.588 194.800,300.237 194.800 C 299.861 194.800,299.600 194.464,299.600 193.979 C 299.600 193.427,299.208 193.022,298.400 192.740 C 297.740 192.510,297.200 192.090,297.200 191.808 C 297.200 191.525,296.855 191.203,296.434 191.093 C 296.011 190.982,295.608 190.468,295.534 189.946 C 295.437 189.259,295.105 188.966,294.324 188.876 C 293.493 188.780,293.220 188.507,293.124 187.676 C 293.037 186.920,292.738 186.563,292.119 186.475 C 291.634 186.406,291.127 186.001,290.992 185.575 C 290.857 185.149,290.528 184.800,290.261 184.800 C 289.994 184.800,289.572 184.260,289.322 183.600 C 289.030 182.826,288.590 182.400,288.081 182.400 C 287.630 182.400,287.204 182.059,287.084 181.600 C 286.969 181.160,286.588 180.800,286.237 180.800 C 285.887 180.800,285.600 180.476,285.600 180.080 C 285.600 179.175,284.846 178.400,283.967 178.400 C 283.596 178.400,283.199 178.040,283.084 177.600 C 282.969 177.160,282.601 176.800,282.265 176.800 C 281.930 176.800,281.598 176.395,281.528 175.900 C 281.436 175.256,281.088 174.964,280.300 174.873 C 279.618 174.795,279.200 174.507,279.200 174.116 C 279.200 173.268,276.770 170.810,275.927 170.804 C 275.491 170.802,275.209 170.412,275.127 169.700 C 275.038 168.930,274.742 168.563,274.141 168.478 C 273.668 168.410,273.190 168.005,273.078 167.578 C 272.966 167.150,272.588 166.800,272.237 166.800 C 271.887 166.800,271.600 166.476,271.600 166.080 C 271.600 165.175,270.846 164.400,269.967 164.400 C 269.596 164.400,269.199 164.040,269.084 163.600 C 268.969 163.160,268.588 162.800,268.237 162.800 C 267.858 162.800,267.600 162.462,267.600 161.965 C 267.600 161.405,267.205 160.982,266.400 160.678 C 265.740 160.428,265.200 160.015,265.200 159.759 C 265.200 159.503,264.855 159.203,264.434 159.093 C 264.011 158.982,263.608 158.468,263.534 157.946 C 263.437 157.259,263.105 156.966,262.325 156.876 C 261.574 156.789,261.212 156.489,261.125 155.880 C 261.056 155.399,260.506 154.771,259.900 154.482 C 259.295 154.193,258.800 153.696,258.800 153.378 C 258.800 153.060,258.548 152.800,258.239 152.800 C 257.931 152.800,257.490 152.260,257.260 151.600 C 256.989 150.824,256.568 150.400,256.067 150.400 C 255.630 150.400,255.202 150.052,255.084 149.600 C 254.969 149.160,254.588 148.800,254.237 148.800 C 253.887 148.800,253.600 148.476,253.600 148.080 C 253.600 147.175,252.846 146.400,251.967 146.400 C 251.596 146.400,251.199 146.040,251.084 145.600 C 250.969 145.160,250.588 144.800,250.237 144.800 C 249.861 144.800,249.600 144.464,249.600 143.979 C 249.600 143.427,249.208 143.022,248.400 142.740 C 247.740 142.510,247.200 142.069,247.200 141.761 C 247.200 141.452,246.940 141.200,246.622 141.200 C 246.304 141.200,245.807 140.705,245.518 140.100 C 245.229 139.494,244.601 138.944,244.120 138.875 C 243.511 138.788,243.211 138.426,243.124 137.675 C 243.037 136.920,242.738 136.563,242.119 136.475 C 241.634 136.406,241.127 136.001,240.992 135.575 C 240.857 135.149,240.528 134.800,240.261 134.800 C 239.994 134.800,239.572 134.260,239.322 133.600 C 239.018 132.795,238.595 132.400,238.035 132.400 C 237.538 132.400,237.200 132.142,237.200 131.763 C 237.200 131.412,236.840 131.031,236.400 130.916 C 235.960 130.801,235.600 130.404,235.600 130.033 C 235.600 129.154,234.825 128.400,233.920 128.400 C 233.524 128.400,233.200 128.113,233.200 127.763 C 233.200 127.412,232.850 127.034,232.422 126.922 C 231.995 126.810,231.590 126.332,231.522 125.859 C 231.437 125.258,231.070 124.962,230.300 124.873 C 229.588 124.791,229.198 124.509,229.196 124.073 C 229.190 123.230,226.732 120.800,225.884 120.800 C 225.493 120.800,225.205 120.382,225.127 119.700 C 225.038 118.930,224.742 118.563,224.141 118.478 C 223.668 118.410,223.190 118.005,223.078 117.578 C 222.966 117.150,222.588 116.800,222.237 116.800 C 221.887 116.800,221.600 116.476,221.600 116.080 C 221.600 115.175,220.846 114.400,219.967 114.400 C 219.596 114.400,219.199 114.040,219.084 113.600 C 218.969 113.160,218.588 112.800,218.237 112.800 C 217.858 112.800,217.600 112.462,217.600 111.965 C 217.600 111.405,217.205 110.982,216.400 110.678 C 215.740 110.428,215.200 110.015,215.200 109.759 C 215.200 109.503,214.855 109.203,214.434 109.093 C 214.011 108.982,213.608 108.468,213.534 107.946 C 213.437 107.259,213.105 106.966,212.324 106.876 C 211.493 106.780,211.220 106.507,211.124 105.676 C 211.034 104.895,210.741 104.563,210.054 104.466 C 209.532 104.392,209.018 103.989,208.907 103.566 C 208.797 103.145,208.475 102.800,208.192 102.800 C 207.910 102.800,207.490 102.260,207.260 101.600 C 206.989 100.824,206.568 100.400,206.067 100.400 C 205.630 100.400,205.202 100.052,205.084 99.600 C 204.969 99.160,204.588 98.800,204.237 98.800 C 203.887 98.800,203.600 98.476,203.600 98.080 C 203.600 97.175,202.846 96.400,201.967 96.400 C 201.596 96.400,201.199 96.040,201.084 95.600 C 200.969 95.160,200.601 94.800,200.265 94.800 C 199.930 94.800,199.598 94.395,199.528 93.900 C 199.443 93.306,199.078 92.954,198.454 92.866 C 197.932 92.792,197.418 92.389,197.307 91.966 C 197.197 91.545,196.868 91.200,196.575 91.200 C 196.283 91.200,195.807 90.705,195.518 90.100 C 195.229 89.494,194.601 88.944,194.120 88.875 C 193.511 88.788,193.211 88.426,193.124 87.675 C 193.037 86.920,192.738 86.563,192.119 86.475 C 191.634 86.406,191.127 86.001,190.992 85.575 C 190.857 85.149,190.528 84.800,190.261 84.800 C 189.994 84.800,189.572 84.260,189.322 83.600 C 189.018 82.795,188.595 82.400,188.035 82.400 C 187.467 82.400,187.200 82.144,187.200 81.600 C 187.200 81.067,186.933 80.800,186.400 80.800 C 185.896 80.800,185.600 80.533,185.600 80.080 C 185.600 79.158,184.842 78.400,183.920 78.400 C 183.524 78.400,183.200 78.113,183.200 77.763 C 183.200 77.412,182.850 77.034,182.422 76.922 C 181.995 76.810,181.590 76.332,181.522 75.859 C 181.437 75.258,181.070 74.962,180.300 74.873 C 179.618 74.795,179.200 74.507,179.200 74.116 C 179.200 73.268,176.770 70.810,175.927 70.804 C 175.491 70.802,175.209 70.412,175.127 69.700 C 175.038 68.930,174.742 68.563,174.141 68.478 C 173.668 68.410,173.190 68.005,173.078 67.578 C 172.966 67.150,172.588 66.800,172.237 66.800 C 171.887 66.800,171.600 66.476,171.600 66.080 C 171.600 65.158,170.842 64.400,169.920 64.400 C 169.467 64.400,169.200 64.104,169.200 63.600 C 169.200 63.067,168.933 62.800,168.400 62.800 C 167.856 62.800,167.600 62.533,167.600 61.965 C 167.600 61.405,167.205 60.982,166.400 60.678 C 165.740 60.428,165.200 60.006,165.200 59.739 C 165.200 59.472,164.851 59.143,164.425 59.008 C 163.999 58.873,163.594 58.366,163.525 57.881 C 163.437 57.262,163.080 56.963,162.324 56.876 C 161.493 56.780,161.220 56.507,161.124 55.676 C 161.034 54.895,160.741 54.563,160.054 54.466 C 159.532 54.392,159.018 53.989,158.907 53.566 C 158.797 53.145,158.475 52.800,158.192 52.800 C 157.910 52.800,157.490 52.260,157.260 51.600 C 156.978 50.792,156.573 50.400,156.021 50.400 C 155.536 50.400,155.200 50.139,155.200 49.763 C 155.200 49.412,154.840 49.031,154.400 48.916 C 153.960 48.801,153.600 48.404,153.600 48.033 C 153.600 47.171,152.829 46.400,151.967 46.400 C 151.596 46.400,151.199 46.040,151.084 45.600 C 150.969 45.160,150.588 44.800,150.237 44.800 C 149.861 44.800,149.600 44.464,149.600 43.979 C 149.600 43.427,149.208 43.022,148.400 42.740 C 147.740 42.510,147.200 42.090,147.200 41.808 C 147.200 41.525,146.855 41.203,146.434 41.093 C 146.011 40.982,145.608 40.468,145.534 39.946 C 145.437 39.259,145.105 38.966,144.324 38.876 C 143.493 38.780,143.220 38.507,143.124 37.676 C 143.037 36.920,142.738 36.563,142.119 36.475 C 141.634 36.406,141.127 36.001,140.992 35.575 C 140.799 34.966,140.376 34.800,139.023 34.800 C 137.446 34.800,137.281 34.703,137.070 33.651 C 136.842 32.511,136.816 32.501,133.387 32.321 C 131.179 32.205,129.819 31.955,129.616 31.626 C 129.282 31.086,126.154 30.663,125.300 31.044 M102.800 85.600 C 102.800 86.040,102.654 86.400,102.475 86.400 C 101.604 86.400,100.400 88.122,100.400 89.369 C 100.400 90.370,100.199 90.759,99.600 90.916 C 99.121 91.041,98.800 91.462,98.800 91.963 C 98.800 92.580,98.548 92.800,97.839 92.800 C 97.131 92.800,96.768 93.116,96.460 94.000 C 96.230 94.660,95.856 95.200,95.628 95.200 C 95.401 95.200,95.094 95.685,94.945 96.277 C 94.796 96.870,94.253 97.745,93.737 98.223 C 93.222 98.701,92.800 99.365,92.800 99.699 C 92.800 100.033,92.440 100.401,92.000 100.516 C 91.466 100.655,91.200 101.062,91.200 101.736 C 91.200 102.541,90.976 102.773,90.100 102.873 C 89.095 102.989,88.990 103.162,88.879 104.875 C 88.769 106.579,88.659 106.762,87.679 106.875 C 86.837 106.973,86.572 107.242,86.473 108.100 C 86.387 108.852,86.116 109.200,85.617 109.200 C 84.787 109.200,84.308 110.560,84.661 111.912 C 84.859 112.668,84.732 112.800,83.809 112.800 C 83.079 112.800,82.660 113.049,82.526 113.563 C 82.416 113.983,81.983 114.416,81.563 114.526 C 81.025 114.666,80.800 115.081,80.800 115.934 C 80.800 117.065,80.590 117.391,79.014 118.716 C 78.676 118.999,78.400 119.563,78.400 119.969 C 78.400 120.375,78.040 120.801,77.600 120.916 C 77.124 121.040,76.800 121.462,76.800 121.955 C 76.800 122.506,76.465 122.869,75.800 123.036 C 75.100 123.211,74.800 123.560,74.800 124.197 C 74.800 124.770,74.504 125.184,74.000 125.316 C 73.553 125.433,73.200 125.862,73.200 126.287 C 73.200 127.095,71.832 128.800,71.184 128.800 C 70.973 128.800,70.800 129.230,70.800 129.757 C 70.800 130.440,70.518 130.784,69.814 130.961 C 69.090 131.142,68.718 131.620,68.410 132.763 C 68.180 133.618,67.723 134.421,67.396 134.546 C 67.068 134.672,66.800 135.121,66.800 135.544 C 66.800 136.030,66.434 136.405,65.806 136.563 C 65.154 136.726,64.723 137.189,64.552 137.906 C 64.409 138.508,64.070 139.270,63.798 139.600 C 63.527 139.930,63.132 140.740,62.921 141.400 C 62.675 142.168,62.225 142.646,61.669 142.728 C 61.151 142.804,60.706 143.235,60.565 143.799 C 60.434 144.318,60.097 144.831,59.814 144.939 C 59.532 145.048,59.177 145.961,59.026 146.968 C 58.786 148.568,58.627 148.800,57.775 148.800 C 57.110 148.800,56.800 149.024,56.800 149.505 C 56.800 149.893,56.395 150.388,55.900 150.605 C 55.405 150.822,54.827 151.394,54.616 151.875 C 54.404 152.357,53.909 152.835,53.516 152.938 C 53.025 153.066,52.800 153.510,52.800 154.351 C 52.800 155.248,52.479 155.813,51.600 156.463 C 50.869 157.004,50.400 157.712,50.400 158.275 C 50.400 158.933,50.169 159.200,49.600 159.200 C 49.132 159.200,48.800 159.467,48.800 159.842 C 48.800 160.196,48.364 160.828,47.831 161.247 C 47.298 161.667,46.743 162.548,46.599 163.205 C 46.455 163.862,46.076 164.400,45.758 164.400 C 45.436 164.400,45.074 164.931,44.940 165.600 C 44.774 166.430,44.465 166.800,43.937 166.800 C 43.112 166.800,42.990 167.029,42.613 169.300 C 42.458 170.232,42.143 170.800,41.782 170.800 C 41.462 170.800,41.200 171.074,41.200 171.410 C 41.200 171.745,40.747 172.192,40.193 172.403 C 39.639 172.613,39.023 173.214,38.823 173.738 C 38.624 174.262,38.188 174.796,37.853 174.924 C 37.518 175.053,37.031 175.873,36.769 176.746 C 36.483 177.699,35.994 178.413,35.546 178.530 C 35.070 178.654,34.800 179.085,34.800 179.719 C 34.800 180.410,34.525 180.789,33.900 180.961 C 32.882 181.242,31.267 183.566,30.934 185.229 C 30.788 185.960,30.391 186.416,29.763 186.574 C 29.192 186.717,28.713 187.209,28.563 187.806 C 28.426 188.353,28.074 188.800,27.781 188.800 C 27.457 188.800,27.143 189.505,26.979 190.604 C 26.760 192.060,26.524 192.454,25.754 192.647 C 25.081 192.816,24.800 193.169,24.800 193.843 C 24.800 194.548,24.579 194.800,23.963 194.800 C 23.451 194.800,23.041 195.123,22.908 195.631 C 22.788 196.088,22.265 196.623,21.745 196.821 C 20.968 197.116,20.800 197.466,20.800 198.790 C 20.800 200.074,20.654 200.400,20.080 200.400 C 19.175 200.400,18.400 201.154,18.400 202.033 C 18.400 202.404,18.040 202.801,17.600 202.916 C 16.949 203.086,16.800 203.462,16.800 204.936 C 16.800 206.614,16.719 206.756,15.700 206.873 C 14.836 206.973,14.573 207.236,14.473 208.100 C 14.384 208.877,14.120 209.200,13.573 209.200 C 13.130 209.200,12.800 209.474,12.800 209.842 C 12.800 210.196,12.364 210.828,11.831 211.247 C 11.298 211.667,10.743 212.548,10.599 213.205 C 10.455 213.862,10.103 214.400,9.818 214.400 C 9.533 214.400,9.195 214.927,9.066 215.570 C 8.901 216.396,8.563 216.778,7.916 216.870 C 7.313 216.956,6.955 217.316,6.869 217.924 C 6.797 218.433,6.481 218.947,6.167 219.068 C 5.853 219.188,5.290 219.942,4.916 220.744 C 4.542 221.545,3.913 222.435,3.518 222.723 C 3.123 223.010,2.800 223.595,2.800 224.023 C 2.800 224.529,2.526 224.800,2.014 224.800 C 0.917 224.800,0.400 225.984,0.400 228.494 C 0.400 230.736,0.867 231.600,2.080 231.600 C 2.533 231.600,2.800 231.896,2.800 232.400 C 2.800 232.933,3.067 233.200,3.600 233.200 C 4.104 233.200,4.400 233.467,4.400 233.920 C 4.400 234.842,5.158 235.600,6.080 235.600 C 6.533 235.600,6.800 235.896,6.800 236.400 C 6.800 236.987,7.067 237.200,7.800 237.200 C 8.432 237.200,8.800 237.426,8.800 237.813 C 8.800 238.609,11.391 241.200,12.187 241.200 C 12.574 241.200,12.800 241.568,12.800 242.200 C 12.800 242.933,13.013 243.200,13.600 243.200 C 14.104 243.200,14.400 243.467,14.400 243.920 C 14.400 244.842,15.158 245.600,16.080 245.600 C 16.533 245.600,16.800 245.896,16.800 246.400 C 16.800 246.933,17.067 247.200,17.600 247.200 C 18.104 247.200,18.400 247.467,18.400 247.920 C 18.400 248.842,19.158 249.600,20.080 249.600 C 20.533 249.600,20.800 249.896,20.800 250.400 C 20.800 250.933,21.067 251.200,21.600 251.200 C 22.104 251.200,22.400 251.467,22.400 251.920 C 22.400 252.842,23.158 253.600,24.080 253.600 C 24.533 253.600,24.800 253.896,24.800 254.400 C 24.800 254.987,25.067 255.200,25.800 255.200 C 26.527 255.200,26.800 255.414,26.800 255.986 C 26.800 256.418,27.160 256.965,27.600 257.200 C 28.040 257.435,28.400 257.878,28.400 258.182 C 28.400 258.487,28.940 258.855,29.600 259.000 C 30.530 259.204,30.800 259.481,30.800 260.232 C 30.800 260.933,31.020 261.200,31.600 261.200 C 32.104 261.200,32.400 261.467,32.400 261.920 C 32.400 262.842,33.158 263.600,34.080 263.600 C 34.533 263.600,34.800 263.896,34.800 264.400 C 34.800 264.933,35.067 265.200,35.600 265.200 C 36.104 265.200,36.400 265.467,36.400 265.920 C 36.400 266.842,37.158 267.600,38.080 267.600 C 38.533 267.600,38.800 267.896,38.800 268.400 C 38.800 268.980,39.067 269.200,39.768 269.200 C 40.519 269.200,40.796 269.470,41.000 270.400 C 41.145 271.060,41.513 271.600,41.818 271.600 C 42.122 271.600,42.565 271.960,42.800 272.400 C 43.035 272.840,43.582 273.200,44.014 273.200 C 44.586 273.200,44.800 273.473,44.800 274.200 C 44.800 274.933,45.013 275.200,45.600 275.200 C 46.104 275.200,46.400 275.467,46.400 275.920 C 46.400 276.842,47.158 277.600,48.080 277.600 C 48.533 277.600,48.800 277.896,48.800 278.400 C 48.800 278.933,49.067 279.200,49.600 279.200 C 50.104 279.200,50.400 279.467,50.400 279.920 C 50.400 280.842,51.158 281.600,52.080 281.600 C 52.533 281.600,52.800 281.896,52.800 282.400 C 52.800 282.933,53.067 283.200,53.600 283.200 C 54.104 283.200,54.400 283.467,54.400 283.920 C 54.400 284.842,55.158 285.600,56.080 285.600 C 56.533 285.600,56.800 285.896,56.800 286.400 C 56.800 286.987,57.067 287.200,57.800 287.200 C 58.432 287.200,58.800 287.426,58.800 287.813 C 58.800 288.609,61.391 291.200,62.187 291.200 C 62.574 291.200,62.800 291.568,62.800 292.200 C 62.800 292.933,63.013 293.200,63.600 293.200 C 64.104 293.200,64.400 293.467,64.400 293.920 C 64.400 294.842,65.158 295.600,66.080 295.600 C 66.533 295.600,66.800 295.896,66.800 296.400 C 66.800 296.933,67.067 297.200,67.600 297.200 C 68.104 297.200,68.400 297.467,68.400 297.920 C 68.400 298.842,69.158 299.600,70.080 299.600 C 70.533 299.600,70.800 299.896,70.800 300.400 C 70.800 300.933,71.067 301.200,71.600 301.200 C 72.104 301.200,72.400 301.467,72.400 301.920 C 72.400 302.842,73.158 303.600,74.080 303.600 C 74.533 303.600,74.800 303.896,74.800 304.400 C 74.800 304.987,75.067 305.200,75.800 305.200 C 76.527 305.200,76.800 305.414,76.800 305.986 C 76.800 306.418,77.160 306.965,77.600 307.200 C 78.040 307.435,78.400 307.878,78.400 308.182 C 78.400 308.487,78.940 308.855,79.600 309.000 C 80.530 309.204,80.800 309.481,80.800 310.232 C 80.800 310.933,81.020 311.200,81.600 311.200 C 82.104 311.200,82.400 311.467,82.400 311.920 C 82.400 312.842,83.158 313.600,84.080 313.600 C 84.533 313.600,84.800 313.896,84.800 314.400 C 84.800 314.933,85.067 315.200,85.600 315.200 C 86.104 315.200,86.400 315.467,86.400 315.920 C 86.400 316.842,87.158 317.600,88.080 317.600 C 88.533 317.600,88.800 317.896,88.800 318.400 C 88.800 318.980,89.067 319.200,89.768 319.200 C 90.519 319.200,90.796 319.470,91.000 320.400 C 91.145 321.060,91.513 321.600,91.818 321.600 C 92.122 321.600,92.565 321.960,92.800 322.400 C 93.035 322.840,93.582 323.200,94.014 323.200 C 94.586 323.200,94.800 323.473,94.800 324.200 C 94.800 324.933,95.013 325.200,95.600 325.200 C 96.104 325.200,96.400 325.467,96.400 325.920 C 96.400 326.842,97.158 327.600,98.080 327.600 C 98.533 327.600,98.800 327.896,98.800 328.400 C 98.800 328.933,99.067 329.200,99.600 329.200 C 100.104 329.200,100.400 329.467,100.400 329.920 C 100.400 330.842,101.158 331.600,102.080 331.600 C 102.533 331.600,102.800 331.896,102.800 332.400 C 102.800 332.933,103.067 333.200,103.600 333.200 C 104.104 333.200,104.400 333.467,104.400 333.920 C 104.400 334.842,105.158 335.600,106.080 335.600 C 106.533 335.600,106.800 335.896,106.800 336.400 C 106.800 336.987,107.067 337.200,107.800 337.200 C 108.432 337.200,108.800 337.426,108.800 337.813 C 108.800 338.609,111.391 341.200,112.187 341.200 C 112.574 341.200,112.800 341.568,112.800 342.200 C 112.800 342.933,113.013 343.200,113.600 343.200 C 114.104 343.200,114.400 343.467,114.400 343.920 C 114.400 344.842,115.158 345.600,116.080 345.600 C 116.533 345.600,116.800 345.896,116.800 346.400 C 116.800 346.933,117.067 347.200,117.600 347.200 C 118.104 347.200,118.400 347.467,118.400 347.920 C 118.400 348.842,119.158 349.600,120.080 349.600 C 120.533 349.600,120.800 349.896,120.800 350.400 C 120.800 350.933,121.067 351.200,121.600 351.200 C 122.104 351.200,122.400 351.467,122.400 351.920 C 122.400 352.842,123.158 353.600,124.080 353.600 C 124.533 353.600,124.800 353.896,124.800 354.400 C 124.800 354.987,125.067 355.200,125.800 355.200 C 126.527 355.200,126.800 355.414,126.800 355.986 C 126.800 356.418,127.160 356.965,127.600 357.200 C 128.040 357.435,128.400 357.878,128.400 358.182 C 128.400 358.487,128.940 358.855,129.600 359.000 C 130.530 359.204,130.800 359.481,130.800 360.232 C 130.800 360.933,131.020 361.200,131.600 361.200 C 132.104 361.200,132.400 361.467,132.400 361.920 C 132.400 362.842,133.158 363.600,134.080 363.600 C 134.533 363.600,134.800 363.896,134.800 364.400 C 134.800 364.933,135.067 365.200,135.600 365.200 C 136.104 365.200,136.400 365.467,136.400 365.920 C 136.400 366.842,137.158 367.600,138.080 367.600 C 138.533 367.600,138.800 367.896,138.800 368.400 C 138.800 368.980,139.067 369.200,139.768 369.200 C 140.519 369.200,140.796 369.470,141.000 370.400 C 141.145 371.060,141.513 371.600,141.818 371.600 C 142.122 371.600,142.565 371.960,142.800 372.400 C 143.035 372.840,143.582 373.200,144.014 373.200 C 144.586 373.200,144.800 373.473,144.800 374.200 C 144.800 374.933,145.013 375.200,145.600 375.200 C 146.104 375.200,146.400 375.467,146.400 375.920 C 146.400 376.842,147.158 377.600,148.080 377.600 C 148.533 377.600,148.800 377.896,148.800 378.400 C 148.800 378.933,149.067 379.200,149.600 379.200 C 150.104 379.200,150.400 379.467,150.400 379.920 C 150.400 380.842,151.158 381.600,152.080 381.600 C 152.533 381.600,152.800 381.896,152.800 382.400 C 152.800 382.933,153.067 383.200,153.600 383.200 C 154.104 383.200,154.400 383.467,154.400 383.920 C 154.400 384.842,155.158 385.600,156.080 385.600 C 156.533 385.600,156.800 385.896,156.800 386.400 C 156.800 386.987,157.067 387.200,157.800 387.200 C 158.432 387.200,158.800 387.426,158.800 387.813 C 158.800 388.609,161.391 391.200,162.187 391.200 C 162.574 391.200,162.800 391.568,162.800 392.200 C 162.800 392.933,163.013 393.200,163.600 393.200 C 164.104 393.200,164.400 393.467,164.400 393.920 C 164.400 394.842,165.158 395.600,166.080 395.600 C 166.533 395.600,166.800 395.896,166.800 396.400 C 166.800 396.933,167.067 397.200,167.600 397.200 C 168.116 397.200,168.400 397.467,168.400 397.951 C 168.400 400.642,179.803 400.765,180.995 398.087 C 181.212 397.599,181.724 397.200,182.132 397.200 C 182.541 397.200,182.969 396.840,183.084 396.400 C 183.199 395.960,183.597 395.600,183.968 395.600 C 184.339 395.600,185.254 394.970,186.000 394.200 C 186.746 393.430,187.559 392.800,187.806 392.800 C 188.054 392.800,188.636 392.395,189.100 391.900 C 190.465 390.445,191.304 389.814,192.179 389.584 C 192.703 389.446,193.046 388.977,193.127 388.284 C 193.236 387.346,193.434 387.200,194.594 387.200 C 196.330 387.200,197.200 386.852,197.200 386.157 C 197.200 385.851,197.524 385.600,197.920 385.600 C 198.842 385.600,199.600 384.842,199.600 383.920 C 199.600 383.391,199.910 383.200,200.767 383.200 C 202.268 383.200,203.200 382.837,203.200 382.252 C 203.200 381.998,203.605 381.612,204.100 381.395 C 204.595 381.178,205.058 380.595,205.128 380.100 C 205.218 379.463,205.526 379.200,206.181 379.200 C 206.742 379.200,207.182 378.911,207.298 378.467 C 207.420 378.002,208.167 377.545,209.345 377.215 C 210.672 376.844,211.200 376.491,211.200 375.976 C 211.200 375.534,211.547 375.206,212.100 375.128 C 212.595 375.058,213.174 374.604,213.386 374.121 C 213.647 373.526,214.261 373.159,215.286 372.986 C 216.118 372.845,216.935 372.502,217.100 372.223 C 217.265 371.945,217.805 371.504,218.300 371.244 C 218.795 370.984,219.200 370.418,219.200 369.986 C 219.200 369.407,219.473 369.200,220.237 369.200 C 220.938 369.200,221.343 368.941,221.484 368.400 C 221.599 367.960,221.951 367.600,222.267 367.600 C 223.262 367.600,225.200 366.404,225.200 365.790 C 225.200 365.465,225.550 365.200,225.977 365.200 C 226.405 365.200,226.990 364.873,227.277 364.474 C 227.565 364.074,228.115 363.630,228.500 363.486 C 228.914 363.332,229.200 362.811,229.200 362.213 C 229.200 361.264,229.327 361.200,231.200 361.200 C 233.049 361.200,233.200 361.127,233.200 360.232 C 233.200 359.481,233.470 359.204,234.400 359.000 C 235.060 358.855,235.600 358.484,235.600 358.176 C 235.600 357.655,236.194 357.412,238.200 357.111 C 238.676 357.040,239.052 356.629,239.128 356.096 C 239.207 355.544,239.534 355.200,239.981 355.200 C 240.380 355.200,240.801 354.840,240.916 354.400 C 241.042 353.917,241.462 353.600,241.975 353.600 C 242.443 353.600,242.929 353.330,243.055 353.000 C 243.182 352.670,243.517 352.400,243.800 352.400 C 244.083 352.400,244.418 352.130,244.545 351.800 C 244.671 351.470,245.247 351.200,245.825 351.200 C 246.538 351.200,246.942 350.944,247.084 350.400 C 247.199 349.960,247.596 349.600,247.967 349.600 C 248.846 349.600,249.600 348.825,249.600 347.920 C 249.600 347.467,249.896 347.200,250.400 347.200 C 250.933 347.200,251.200 346.933,251.200 346.400 C 251.200 345.756,251.467 345.600,252.571 345.600 C 253.995 345.600,255.200 344.761,255.200 343.771 C 255.200 343.435,255.594 343.200,256.157 343.200 C 256.835 343.200,257.184 342.918,257.356 342.232 C 257.525 341.561,257.980 341.180,258.840 340.991 C 260.451 340.637,263.600 338.507,263.600 337.772 C 263.600 337.457,263.936 337.200,264.346 337.200 C 264.756 337.200,265.521 336.878,266.046 336.484 C 266.571 336.090,267.495 335.554,268.100 335.293 C 268.780 334.999,269.200 334.509,269.200 334.009 C 269.200 333.405,269.463 333.200,270.237 333.200 C 270.938 333.200,271.343 332.941,271.484 332.400 C 271.599 331.960,271.951 331.600,272.267 331.600 C 273.262 331.600,275.200 330.404,275.200 329.790 C 275.200 329.465,275.560 329.200,276.000 329.200 C 276.440 329.200,276.800 328.934,276.800 328.610 C 276.800 328.285,277.589 327.661,278.553 327.222 C 279.517 326.782,280.406 326.162,280.528 325.843 C 280.651 325.523,281.167 325.203,281.676 325.131 C 282.184 325.059,282.771 324.610,282.980 324.134 C 283.190 323.655,283.861 323.168,284.480 323.044 C 285.096 322.921,285.600 322.566,285.600 322.257 C 285.600 321.947,285.960 321.599,286.400 321.484 C 286.941 321.343,287.200 320.938,287.200 320.237 C 287.200 319.279,287.333 319.200,288.953 319.200 C 290.344 319.200,290.748 319.042,290.907 318.434 C 291.018 318.011,291.532 317.608,292.054 317.534 C 292.747 317.436,293.034 317.106,293.127 316.300 C 293.244 315.281,293.386 315.200,295.064 315.200 C 296.538 315.200,296.914 315.051,297.084 314.400 C 297.199 313.960,297.596 313.600,297.967 313.600 C 298.830 313.600,299.600 312.829,299.600 311.965 C 299.600 311.519,300.044 311.206,300.905 311.044 C 301.727 310.890,302.357 310.466,302.605 309.900 C 302.822 309.405,303.405 308.942,303.901 308.872 C 304.396 308.802,304.988 308.397,305.215 307.972 C 305.442 307.547,305.962 307.200,306.371 307.200 C 306.828 307.200,307.209 306.818,307.363 306.204 C 307.561 305.415,307.945 305.154,309.207 304.953 C 310.083 304.812,310.800 304.531,310.800 304.328 C 310.800 304.125,311.341 303.770,312.002 303.539 C 312.746 303.280,313.297 302.754,313.446 302.160 C 313.594 301.570,313.978 301.200,314.443 301.200 C 314.933 301.200,315.200 300.918,315.200 300.400 C 315.200 299.896,315.467 299.600,315.920 299.600 C 318.005 299.600,318.443 295.349,316.400 294.940 C 315.471 294.754,315.200 294.486,315.200 293.750 C 315.200 293.067,314.975 292.800,314.400 292.800 C 313.878 292.800,313.600 292.533,313.600 292.032 C 313.600 291.503,313.225 291.181,312.400 291.000 C 311.470 290.796,311.200 290.519,311.200 289.768 C 311.200 289.011,310.989 288.800,310.232 288.800 C 309.489 288.800,309.204 288.530,309.009 287.641 C 308.861 286.967,308.429 286.396,307.977 286.278 C 307.550 286.166,307.200 285.788,307.200 285.437 C 307.200 285.033,306.853 284.800,306.250 284.800 C 305.514 284.800,305.246 284.529,305.060 283.600 C 304.928 282.940,304.566 282.400,304.257 282.400 C 303.947 282.400,303.599 282.040,303.484 281.600 C 303.343 281.059,302.938 280.800,302.237 280.800 C 301.388 280.800,301.200 280.612,301.200 279.763 C 301.200 279.062,300.941 278.657,300.400 278.516 C 299.960 278.401,299.600 278.053,299.600 277.743 C 299.600 277.434,299.060 277.072,298.400 276.940 C 297.471 276.754,297.200 276.486,297.200 275.750 C 297.200 275.067,296.975 274.800,296.400 274.800 C 295.878 274.800,295.600 274.533,295.600 274.034 C 295.600 273.567,295.131 273.059,294.400 272.736 C 293.724 272.437,293.200 271.898,293.200 271.502 C 293.200 271.026,292.888 270.800,292.232 270.800 C 291.481 270.800,291.204 270.530,291.000 269.600 C 290.855 268.940,290.493 268.400,290.195 268.400 C 289.897 268.400,289.540 268.040,289.400 267.600 C 289.238 267.089,288.795 266.800,288.173 266.800 C 287.392 266.800,287.200 266.595,287.200 265.763 C 287.200 265.078,286.940 264.657,286.437 264.526 C 286.017 264.416,285.584 263.983,285.474 263.563 C 285.343 263.060,284.922 262.800,284.237 262.800 C 283.405 262.800,283.200 262.608,283.200 261.827 C 283.200 261.205,282.911 260.762,282.400 260.600 C 281.960 260.460,281.600 260.103,281.600 259.805 C 281.600 259.507,281.060 259.145,280.400 259.000 C 279.470 258.796,279.200 258.519,279.200 257.768 C 279.200 257.112,278.974 256.800,278.498 256.800 C 278.102 256.800,277.563 256.276,277.264 255.600 C 276.941 254.869,276.433 254.400,275.966 254.400 C 275.467 254.400,275.200 254.122,275.200 253.600 C 275.200 253.025,274.933 252.800,274.250 252.800 C 273.514 252.800,273.246 252.529,273.060 251.600 C 272.928 250.940,272.566 250.400,272.257 250.400 C 271.947 250.400,271.599 250.040,271.484 249.600 C 271.343 249.059,270.938 248.800,270.237 248.800 C 269.388 248.800,269.200 248.612,269.200 247.763 C 269.200 247.062,268.941 246.657,268.400 246.516 C 267.960 246.401,267.600 246.053,267.600 245.743 C 267.600 245.434,267.060 245.072,266.400 244.940 C 265.471 244.754,265.200 244.486,265.200 243.750 C 265.200 243.067,264.975 242.800,264.400 242.800 C 263.878 242.800,263.600 242.533,263.600 242.032 C 263.600 241.503,263.225 241.181,262.400 241.000 C 261.470 240.796,261.200 240.519,261.200 239.768 C 261.200 239.011,260.989 238.800,260.232 238.800 C 259.489 238.800,259.204 238.530,259.009 237.641 C 258.861 236.967,258.429 236.396,257.977 236.278 C 257.550 236.166,257.200 235.788,257.200 235.437 C 257.200 235.024,256.848 234.800,256.200 234.800 C 255.390 234.800,255.200 234.602,255.200 233.763 C 255.200 233.078,254.940 232.657,254.437 232.526 C 254.017 232.416,253.584 231.983,253.474 231.563 C 253.343 231.060,252.922 230.800,252.237 230.800 C 251.388 230.800,251.200 230.612,251.200 229.763 C 251.200 229.062,250.941 228.657,250.400 228.516 C 249.960 228.401,249.600 228.053,249.600 227.743 C 249.600 227.434,249.060 227.072,248.400 226.940 C 247.471 226.754,247.200 226.486,247.200 225.750 C 247.200 225.067,246.975 224.800,246.400 224.800 C 245.878 224.800,245.600 224.533,245.600 224.034 C 245.600 223.567,245.131 223.059,244.400 222.736 C 243.724 222.437,243.200 221.898,243.200 221.502 C 243.200 221.026,242.888 220.800,242.232 220.800 C 241.481 220.800,241.204 220.530,241.000 219.600 C 240.855 218.940,240.493 218.400,240.195 218.400 C 239.897 218.400,239.540 218.040,239.400 217.600 C 239.238 217.089,238.795 216.800,238.173 216.800 C 237.392 216.800,237.200 216.595,237.200 215.763 C 237.200 215.078,236.940 214.657,236.437 214.526 C 236.017 214.416,235.584 213.983,235.474 213.563 C 235.343 213.060,234.922 212.800,234.237 212.800 C 233.405 212.800,233.200 212.608,233.200 211.827 C 233.200 211.205,232.911 210.762,232.400 210.600 C 231.960 210.460,231.600 210.103,231.600 209.805 C 231.600 209.507,231.060 209.145,230.400 209.000 C 229.470 208.796,229.200 208.519,229.200 207.768 C 229.200 207.112,228.974 206.800,228.498 206.800 C 228.102 206.800,227.563 206.276,227.264 205.600 C 226.941 204.869,226.433 204.400,225.966 204.400 C 225.467 204.400,225.200 204.122,225.200 203.600 C 225.200 203.025,224.933 202.800,224.250 202.800 C 223.514 202.800,223.246 202.529,223.060 201.600 C 222.928 200.940,222.566 200.400,222.257 200.400 C 221.947 200.400,221.599 200.040,221.484 199.600 C 221.343 199.059,220.938 198.800,220.237 198.800 C 219.388 198.800,219.200 198.612,219.200 197.763 C 219.200 197.062,218.941 196.657,218.400 196.516 C 217.960 196.401,217.600 196.053,217.600 195.743 C 217.600 195.434,217.060 195.072,216.400 194.940 C 215.492 194.758,215.200 194.480,215.200 193.797 C 215.200 193.230,214.902 192.815,214.400 192.684 C 213.960 192.569,213.600 192.202,213.600 191.869 C 213.600 191.522,213.089 191.151,212.400 191.000 C 211.470 190.796,211.200 190.519,211.200 189.768 C 211.200 189.011,210.989 188.800,210.232 188.800 C 209.489 188.800,209.204 188.530,209.009 187.641 C 208.861 186.967,208.429 186.396,207.977 186.278 C 207.550 186.166,207.200 185.788,207.200 185.437 C 207.200 185.033,206.853 184.800,206.250 184.800 C 205.514 184.800,205.246 184.529,205.060 183.600 C 204.928 182.940,204.566 182.400,204.257 182.400 C 203.947 182.400,203.599 182.040,203.484 181.600 C 203.343 181.059,202.938 180.800,202.237 180.800 C 201.388 180.800,201.200 180.612,201.200 179.763 C 201.200 179.062,200.941 178.657,200.400 178.516 C 199.960 178.401,199.600 178.053,199.600 177.743 C 199.600 177.434,199.060 177.072,198.400 176.940 C 197.471 176.754,197.200 176.486,197.200 175.750 C 197.200 175.067,196.975 174.800,196.400 174.800 C 195.878 174.800,195.600 174.533,195.600 174.034 C 195.600 173.567,195.131 173.059,194.400 172.736 C 193.724 172.437,193.200 171.898,193.200 171.502 C 193.200 171.026,192.888 170.800,192.232 170.800 C 191.481 170.800,191.204 170.530,191.000 169.600 C 190.855 168.940,190.493 168.400,190.195 168.400 C 189.897 168.400,189.540 168.040,189.400 167.600 C 189.238 167.089,188.795 166.800,188.173 166.800 C 187.392 166.800,187.200 166.595,187.200 165.763 C 187.200 165.078,186.940 164.657,186.437 164.526 C 186.017 164.416,185.584 163.983,185.474 163.563 C 185.343 163.060,184.922 162.800,184.237 162.800 C 183.405 162.800,183.200 162.608,183.200 161.827 C 183.200 161.205,182.911 160.762,182.400 160.600 C 181.960 160.460,181.600 160.111,181.600 159.823 C 181.600 159.535,181.060 159.192,180.400 159.060 C 179.447 158.869,179.200 158.612,179.200 157.810 C 179.200 157.112,178.982 156.800,178.495 156.800 C 178.107 156.800,177.612 156.395,177.395 155.900 C 177.178 155.405,176.595 154.822,176.100 154.605 C 175.605 154.388,175.200 153.893,175.200 153.505 C 175.200 153.030,174.891 152.800,174.250 152.800 C 173.514 152.800,173.246 152.529,173.060 151.600 C 172.928 150.940,172.566 150.400,172.257 150.400 C 171.947 150.400,171.599 150.040,171.484 149.600 C 171.343 149.059,170.938 148.800,170.237 148.800 C 169.388 148.800,169.200 148.612,169.200 147.763 C 169.200 147.062,168.941 146.657,168.400 146.516 C 167.960 146.401,167.600 146.053,167.600 145.743 C 167.600 145.434,167.060 145.072,166.400 144.940 C 165.492 144.758,165.200 144.480,165.200 143.797 C 165.200 143.230,164.902 142.815,164.400 142.684 C 163.960 142.569,163.600 142.202,163.600 141.869 C 163.600 141.522,163.089 141.151,162.400 141.000 C 161.470 140.796,161.200 140.519,161.200 139.768 C 161.200 139.011,160.989 138.800,160.232 138.800 C 159.481 138.800,159.204 138.530,159.000 137.600 C 158.819 136.775,158.497 136.400,157.968 136.400 C 157.467 136.400,157.200 136.122,157.200 135.600 C 157.200 135.025,156.933 134.800,156.250 134.800 C 155.514 134.800,155.246 134.529,155.060 133.600 C 154.928 132.940,154.566 132.400,154.257 132.400 C 153.947 132.400,153.599 132.040,153.484 131.600 C 153.343 131.059,152.938 130.800,152.237 130.800 C 151.388 130.800,151.200 130.612,151.200 129.763 C 151.200 129.062,150.941 128.657,150.400 128.516 C 149.960 128.401,149.600 128.053,149.600 127.743 C 149.600 127.434,149.060 127.072,148.400 126.940 C 147.471 126.754,147.200 126.486,147.200 125.750 C 147.200 125.067,146.975 124.800,146.400 124.800 C 145.878 124.800,145.600 124.533,145.600 124.034 C 145.600 123.567,145.131 123.059,144.400 122.736 C 143.724 122.437,143.200 121.898,143.200 121.502 C 143.200 121.026,142.888 120.800,142.232 120.800 C 141.481 120.800,141.204 120.530,141.000 119.600 C 140.855 118.940,140.493 118.400,140.195 118.400 C 139.897 118.400,139.540 118.040,139.400 117.600 C 139.238 117.089,138.795 116.800,138.173 116.800 C 137.392 116.800,137.200 116.595,137.200 115.763 C 137.200 115.078,136.940 114.657,136.437 114.526 C 136.017 114.416,135.584 113.983,135.474 113.563 C 135.343 113.060,134.922 112.800,134.237 112.800 C 133.405 112.800,133.200 112.608,133.200 111.827 C 133.200 111.205,132.911 110.762,132.400 110.600 C 131.960 110.460,131.600 110.111,131.600 109.823 C 131.600 109.535,131.060 109.192,130.400 109.060 C 129.447 108.869,129.200 108.612,129.200 107.810 C 129.200 107.113,128.982 106.800,128.498 106.800 C 128.102 106.800,127.563 106.276,127.264 105.600 C 126.941 104.869,126.433 104.400,125.966 104.400 C 125.467 104.400,125.200 104.122,125.200 103.600 C 125.200 103.025,124.933 102.800,124.250 102.800 C 123.514 102.800,123.246 102.529,123.060 101.600 C 122.928 100.940,122.566 100.400,122.257 100.400 C 121.947 100.400,121.599 100.040,121.484 99.600 C 121.343 99.059,120.938 98.800,120.237 98.800 C 119.388 98.800,119.200 98.612,119.200 97.763 C 119.200 97.062,118.941 96.657,118.400 96.516 C 117.960 96.401,117.600 96.053,117.600 95.743 C 117.600 95.434,117.060 95.072,116.400 94.940 C 115.471 94.754,115.200 94.486,115.200 93.750 C 115.200 93.067,114.975 92.800,114.400 92.800 C 113.878 92.800,113.600 92.533,113.600 92.032 C 113.600 91.503,113.225 91.181,112.400 91.000 C 111.470 90.796,111.200 90.519,111.200 89.768 C 111.200 89.011,110.989 88.800,110.232 88.800 C 109.481 88.800,109.204 88.530,109.000 87.600 C 108.819 86.775,108.497 86.400,107.968 86.400 C 107.467 86.400,107.200 86.122,107.200 85.600 C 107.200 84.897,106.933 84.800,105.000 84.800 C 103.067 84.800,102.800 84.897,102.800 85.600 M143.114 191.038 C 144.370 191.226,145.219 191.624,145.718 192.259 C 146.180 192.847,146.878 193.200,147.579 193.200 C 148.505 193.200,148.742 193.409,148.940 194.400 C 149.072 195.060,149.423 195.600,149.719 195.600 C 150.016 195.600,150.426 196.275,150.629 197.100 C 150.864 198.048,151.331 198.745,151.900 198.995 C 152.739 199.363,152.800 199.637,152.800 203.068 L 152.800 206.747 151.700 206.873 C 150.836 206.973,150.573 207.236,150.473 208.100 C 150.384 208.877,150.120 209.200,149.573 209.200 C 149.083 209.200,148.800 209.475,148.800 209.953 C 148.800 210.379,148.439 210.801,147.970 210.924 C 147.514 211.043,147.045 211.508,146.927 211.957 C 146.810 212.406,146.382 212.879,145.977 213.007 C 145.572 213.136,145.133 213.580,145.002 213.995 C 144.870 214.410,144.366 214.806,143.881 214.875 C 143.321 214.954,142.953 215.328,142.872 215.900 C 142.802 216.395,142.470 216.800,142.135 216.800 C 141.799 216.800,141.434 217.149,141.322 217.575 C 141.211 218.001,140.598 218.532,139.960 218.754 C 139.188 219.023,138.800 219.433,138.800 219.979 C 138.800 220.497,138.539 220.800,138.095 220.800 C 137.707 220.800,137.212 221.205,136.995 221.700 C 136.778 222.195,136.195 222.778,135.700 222.995 C 135.205 223.212,134.800 223.707,134.800 224.095 C 134.800 224.539,134.497 224.800,133.979 224.800 C 133.433 224.800,133.023 225.188,132.754 225.960 C 132.532 226.598,132.001 227.211,131.575 227.322 C 131.149 227.434,130.800 227.799,130.800 228.135 C 130.800 228.470,130.395 228.802,129.900 228.872 C 129.337 228.952,128.954 229.321,128.878 229.859 C 128.810 230.332,128.405 230.810,127.978 230.922 C 127.550 231.034,127.200 231.407,127.200 231.752 C 127.200 232.097,126.660 232.659,126.000 233.000 C 125.016 233.509,124.800 233.871,124.800 235.010 C 124.800 236.113,124.642 236.400,124.034 236.400 C 123.571 236.400,123.062 236.864,122.749 237.571 C 122.381 238.401,121.859 238.812,120.959 238.981 C 120.157 239.132,119.612 239.510,119.483 240.005 C 119.370 240.437,118.805 240.970,118.228 241.189 C 117.652 241.409,117.075 241.861,116.947 242.194 C 116.819 242.527,116.502 242.800,116.243 242.800 C 115.984 242.800,115.454 243.340,115.064 244.000 C 114.674 244.660,114.107 245.200,113.804 245.200 C 113.502 245.200,113.149 245.531,113.020 245.936 C 112.892 246.341,112.340 246.911,111.793 247.204 C 111.247 247.496,110.800 247.963,110.800 248.241 C 110.800 248.519,110.440 248.860,110.000 249.000 C 109.560 249.140,109.200 249.595,109.200 250.013 C 109.200 251.176,107.706 251.820,106.835 251.032 C 106.451 250.684,105.938 250.400,105.695 250.400 C 105.453 250.400,105.140 250.040,105.000 249.600 C 104.860 249.160,104.517 248.800,104.237 248.800 C 103.957 248.800,103.530 248.366,103.289 247.835 C 103.047 247.304,102.497 246.758,102.068 246.621 C 101.638 246.485,101.194 246.019,101.081 245.587 C 100.967 245.154,100.600 244.800,100.264 244.800 C 99.929 244.800,99.536 244.430,99.393 243.977 C 99.249 243.524,98.697 242.989,98.166 242.787 C 97.635 242.585,97.200 242.145,97.200 241.810 C 97.200 241.474,96.926 241.200,96.590 241.200 C 96.255 241.200,95.808 240.747,95.597 240.193 C 95.387 239.639,94.761 239.013,94.207 238.803 C 93.653 238.592,93.200 238.231,93.200 238.001 C 93.200 237.771,92.750 237.378,92.200 237.127 C 90.956 236.560,90.902 235.698,92.100 235.528 C 92.744 235.436,93.036 235.088,93.127 234.300 C 93.215 233.536,93.482 233.200,94.004 233.200 C 94.417 233.200,94.990 232.873,95.277 232.474 C 95.565 232.074,96.115 231.630,96.500 231.486 C 96.914 231.332,97.200 230.811,97.200 230.213 C 97.200 229.396,97.396 229.200,98.213 229.200 C 98.811 229.200,99.332 228.914,99.486 228.500 C 99.630 228.115,100.074 227.565,100.474 227.277 C 100.873 226.990,101.200 226.405,101.200 225.977 C 101.200 225.416,101.476 225.200,102.192 225.200 C 102.917 225.200,103.252 224.931,103.436 224.200 C 103.574 223.650,103.954 223.200,104.281 223.200 C 104.608 223.200,104.965 222.855,105.075 222.434 C 105.185 222.013,105.709 221.559,106.238 221.426 C 106.931 221.252,107.200 220.907,107.200 220.192 C 107.200 219.467,107.415 219.200,108.000 219.200 C 108.456 219.200,108.800 218.933,108.800 218.579 C 108.800 218.238,109.340 217.770,110.000 217.540 C 110.884 217.232,111.200 216.869,111.200 216.161 C 111.200 215.393,111.409 215.200,112.237 215.200 C 112.922 215.200,113.343 214.940,113.474 214.437 C 113.584 214.017,114.017 213.584,114.437 213.474 C 114.934 213.345,115.200 212.922,115.200 212.264 C 115.200 211.459,115.424 211.227,116.300 211.127 C 117.106 211.034,117.436 210.747,117.534 210.054 C 117.608 209.532,118.011 209.018,118.434 208.907 C 118.855 208.797,119.200 208.368,119.200 207.953 C 119.200 207.418,119.487 207.200,120.192 207.200 C 120.917 207.200,121.252 206.931,121.436 206.200 C 121.574 205.650,121.925 205.200,122.216 205.200 C 122.508 205.200,122.855 204.858,122.987 204.440 C 123.120 204.022,123.672 203.568,124.214 203.432 C 124.931 203.252,125.200 202.913,125.200 202.192 C 125.200 201.452,125.413 201.200,126.037 201.200 C 126.526 201.200,126.958 200.881,127.075 200.434 C 127.185 200.013,127.709 199.559,128.238 199.426 C 128.931 199.252,129.200 198.907,129.200 198.192 C 129.200 197.537,129.424 197.200,129.860 197.200 C 130.671 197.200,133.200 194.661,133.200 193.846 C 133.200 193.497,133.651 193.201,134.300 193.127 C 135.088 193.036,135.436 192.744,135.528 192.100 C 135.624 191.424,135.922 191.199,136.728 191.196 C 139.043 191.186,140.800 190.696,140.846 190.048 C 140.887 189.485,140.916 189.489,141.072 190.079 C 141.193 190.538,141.856 190.849,143.114 191.038 M206.800 250.400 C 206.800 250.989,207.067 251.200,207.810 251.200 C 208.612 251.200,208.869 251.447,209.060 252.400 C 209.192 253.060,209.537 253.600,209.826 253.600 C 210.127 253.600,210.497 254.331,210.688 255.300 C 210.948 256.625,211.219 257.028,211.911 257.128 C 213.250 257.320,213.302 264.400,211.965 264.400 C 211.405 264.400,210.982 264.795,210.678 265.600 C 210.428 266.260,209.994 266.800,209.712 266.800 C 209.431 266.800,209.200 267.121,209.200 267.512 C 209.200 267.936,208.715 268.408,208.000 268.678 C 207.195 268.982,206.800 269.405,206.800 269.965 C 206.800 270.496,206.543 270.800,206.095 270.800 C 205.707 270.800,205.212 271.205,204.995 271.700 C 204.778 272.195,204.195 272.778,203.700 272.995 C 203.205 273.212,202.800 273.695,202.800 274.067 C 202.800 274.465,202.429 274.797,201.900 274.872 C 201.405 274.942,200.822 275.407,200.604 275.904 C 200.386 276.401,199.891 276.908,199.504 277.031 C 199.117 277.153,198.799 277.467,198.797 277.727 C 198.796 277.987,198.256 278.507,197.597 278.881 C 196.939 279.256,196.400 279.841,196.400 280.181 C 196.400 280.522,196.113 280.800,195.763 280.800 C 195.412 280.800,195.035 281.145,194.925 281.566 C 194.815 281.987,194.291 282.441,193.762 282.574 C 193.133 282.732,192.800 283.102,192.800 283.645 C 192.800 284.138,192.476 284.560,192.000 284.684 C 191.557 284.800,191.200 285.230,191.200 285.647 C 191.200 286.105,190.918 286.400,190.480 286.400 C 189.558 286.400,188.800 287.158,188.800 288.080 C 188.800 288.507,188.507 288.800,188.080 288.800 C 187.158 288.800,186.400 289.558,186.400 290.480 C 186.400 290.933,186.104 291.200,185.600 291.200 C 185.067 291.200,184.800 291.467,184.800 292.000 C 184.800 292.537,184.533 292.800,183.990 292.800 C 183.500 292.800,183.034 293.185,182.809 293.776 C 182.605 294.312,182.070 294.949,181.619 295.190 C 181.169 295.431,180.800 295.879,180.800 296.186 C 180.800 296.493,180.395 296.802,179.900 296.872 C 179.337 296.952,178.954 297.321,178.878 297.859 C 178.810 298.332,178.405 298.810,177.978 298.922 C 177.550 299.034,177.200 299.372,177.200 299.675 C 177.200 299.977,176.660 300.428,176.000 300.678 C 175.195 300.982,174.800 301.405,174.800 301.965 C 174.800 302.462,174.542 302.800,174.163 302.800 C 173.812 302.800,173.439 303.129,173.334 303.531 C 173.229 303.932,172.616 304.573,171.971 304.953 C 171.327 305.334,170.800 305.905,170.800 306.223 C 170.800 306.540,170.535 306.800,170.210 306.800 C 169.886 306.800,169.336 307.350,168.988 308.023 C 168.101 309.738,165.475 309.651,165.273 307.900 C 165.204 307.295,164.979 306.800,164.773 306.800 C 164.272 306.800,161.200 303.705,161.200 303.200 C 161.200 302.980,160.935 302.800,160.612 302.800 C 160.289 302.800,159.625 302.260,159.137 301.600 C 158.649 300.940,158.013 300.400,157.725 300.400 C 157.436 300.400,157.200 300.133,157.200 299.808 C 157.200 299.482,156.750 299.102,156.200 298.964 C 155.650 298.826,155.200 298.553,155.200 298.357 C 155.200 297.867,152.096 294.800,151.600 294.800 C 151.380 294.800,151.200 294.440,151.200 294.000 C 151.200 293.422,151.467 293.200,152.161 293.200 C 152.869 293.200,153.232 292.884,153.540 292.000 C 153.770 291.340,154.238 290.800,154.579 290.800 C 154.921 290.800,155.200 290.533,155.200 290.208 C 155.200 289.882,155.650 289.502,156.200 289.364 C 156.918 289.184,157.200 288.843,157.200 288.157 C 157.200 287.467,157.423 287.200,158.000 287.200 C 158.516 287.200,158.800 286.933,158.800 286.450 C 158.800 285.937,159.179 285.624,160.000 285.460 C 160.953 285.269,161.200 285.012,161.200 284.210 C 161.200 283.468,161.411 283.200,161.997 283.200 C 162.435 283.200,163.018 282.840,163.293 282.400 C 163.568 281.960,164.024 281.600,164.306 281.600 C 164.589 281.600,164.928 281.060,165.060 280.400 C 165.245 279.474,165.515 279.200,166.242 279.200 C 166.904 279.200,167.257 278.913,167.426 278.238 C 167.559 277.709,168.013 277.185,168.434 277.075 C 168.881 276.958,169.200 276.526,169.200 276.037 C 169.200 275.417,169.452 275.200,170.173 275.200 C 170.800 275.200,171.238 274.911,171.404 274.387 C 171.736 273.342,173.342 271.736,174.387 271.404 C 174.911 271.238,175.200 270.800,175.200 270.173 C 175.200 269.452,175.417 269.200,176.037 269.200 C 176.526 269.200,176.958 268.881,177.075 268.434 C 177.185 268.013,177.709 267.559,178.238 267.426 C 178.931 267.252,179.200 266.907,179.200 266.192 C 179.200 265.537,179.424 265.200,179.860 265.200 C 180.685 265.200,183.200 262.655,183.200 261.820 C 183.200 261.458,183.548 261.200,184.035 261.200 C 184.595 261.200,185.018 260.805,185.322 260.000 C 185.572 259.340,186.023 258.800,186.325 258.800 C 186.628 258.800,186.966 258.450,187.078 258.022 C 187.190 257.595,187.668 257.190,188.141 257.122 C 188.679 257.046,189.048 256.663,189.128 256.100 C 189.198 255.605,189.530 255.200,189.865 255.200 C 190.201 255.200,190.566 254.851,190.678 254.425 C 190.789 253.999,191.402 253.468,192.040 253.246 C 192.812 252.977,193.200 252.567,193.200 252.021 C 193.200 251.468,193.460 251.200,193.997 251.200 C 194.435 251.200,195.018 250.840,195.293 250.400 C 195.753 249.663,196.226 249.600,201.296 249.600 C 206.533 249.600,206.800 249.639,206.800 250.400 " stroke="none" fill="#04bcfc" fill-rule="evenodd"></path><path id="path1" d="" stroke="none" fill="#08bcfc" fill-rule="evenodd"></path><path id="path2" d="" stroke="none" fill="#08bcfc" fill-rule="evenodd"></path><path id="path3" d="" stroke="none" fill="#08bcfc" fill-rule="evenodd"></path><path id="path4" d="" stroke="none" fill="#08bcfc" fill-rule="evenodd"></path></g></svg>