<svg id="svg" version="1.1" xmlns="http://www.w3.org/2000/svg" xmlns:xlink="http://www.w3.org/1999/xlink" width="400" height="400" viewBox="0, 0, 400,400"><g id="svgg"><path id="path0" d="M298.800 13.242 C 275.822 14.881,256.428 22.364,230.000 39.788 C 211.043 52.286,208.659 61.460,223.633 64.288 C 229.537 65.404,365.622 65.387,369.600 64.270 C 378.747 61.703,380.971 57.041,380.989 40.400 C 381.014 17.051,379.015 15.049,355.000 14.379 C 347.740 14.177,335.348 13.739,327.463 13.406 C 312.109 12.757,306.084 12.723,298.800 13.242 M80.200 205.474 C 68.341 206.507,58.581 213.811,39.944 235.600 C 22.830 255.608,19.599 263.145,24.119 272.520 C 27.257 279.029,45.024 298.748,63.400 316.114 C 67.140 319.648,71.550 323.827,73.200 325.401 C 98.312 349.351,130.234 372.552,147.400 379.331 C 161.277 384.811,170.130 385.562,197.600 383.590 C 200.790 383.361,207.900 383.010,213.400 382.811 C 230.650 382.185,232.453 381.085,248.192 361.600 C 275.770 327.456,289.854 321.443,341.951 321.568 C 351.714 321.591,360.084 321.704,360.551 321.819 C 361.018 321.934,363.433 321.848,365.919 321.628 C 374.492 320.869,378.189 317.958,380.308 310.299 C 381.250 306.896,381.381 221.866,380.451 217.801 C 378.813 210.640,374.806 206.732,367.966 205.622 C 365.602 205.239,84.562 205.094,80.200 205.474 " stroke="none" fill="#c8c719" fill-rule="evenodd"></path><path id="path1" d="M0.000 200.000 L 0.000 400.000 200.000 400.000 L 400.000 400.000 400.000 200.000 L 400.000 0.000 200.000 0.000 L 0.000 0.000 0.000 200.000 M327.463 13.406 C 335.348 13.739,347.740 14.177,355.000 14.379 C 379.015 15.049,381.014 17.051,380.989 40.400 C 380.971 57.041,378.747 61.703,369.600 64.270 C 365.622 65.387,229.537 65.404,223.633 64.288 C 208.659 61.460,211.043 52.286,230.000 39.788 C 265.243 16.553,283.699 11.557,327.463 13.406 M367.966 205.622 C 374.806 206.732,378.813 210.640,380.451 217.801 C 381.381 221.866,381.250 306.896,380.308 310.299 C 378.189 317.958,374.492 320.869,365.919 321.628 C 363.433 321.848,361.018 321.934,360.551 321.819 C 360.084 321.704,351.714 321.591,341.951 321.568 C 289.854 321.443,275.770 327.456,248.192 361.600 C 232.453 381.085,230.650 382.185,213.400 382.811 C 207.900 383.010,200.790 383.361,197.600 383.590 C 183.564 384.598,177.058 384.857,172.200 384.605 C 146.945 383.290,127.382 372.350,85.000 335.843 C 80.160 331.673,74.850 326.975,73.200 325.401 C 71.550 323.827,67.140 319.648,63.400 316.114 C 45.024 298.748,27.257 279.029,24.119 272.520 C 19.599 263.145,22.830 255.608,39.944 235.600 C 58.581 213.811,68.341 206.507,80.200 205.474 C 84.562 205.094,365.602 205.239,367.966 205.622 " stroke="none" fill="#054b73" fill-rule="evenodd"></path></g></svg>