<svg xmlns="http://www.w3.org/2000/svg" viewBox="0 0 628.53232 284.48324">
  <path fill="#fff" d="M456.25 24.06l.08.06v-.06h-.1zm.08.06c.04.45.1.76.1 1.02l.1-.18c.1-.16.2-.28.4-.4l-.6-.44zm-59.25 45.44c-.18.3-.34.53-.6.9-.18.3.65-.6.6-.9zm183.67 31.73l.2.1c-14.56.1-28.9 9-35.57 22.5-3.06 6.2-3.24 7.2-3.24 17.6 0 9.9.2 11.6 2.6 16.8 5 10.73 14.9 19.02 26.8 22.42 2.6.7 7.6 1.1 12.2.8 28.8-1.5 46.3-31.8 33.4-58-6.1-12.2-16.2-19.5-30.1-21.8-2.1-.4-4.2-.5-6.3-.5zm-74.05 146l-.05.06.1-.02h-.03s-.02 0-.03-.04zm.2.2v.1l-.22.1.25-.2-.03-.1zm-.3.3l-.3.1-.12.1.42-.3zm-.4.3h-.07.02l.03-.1zm.1-.2v-.1l-.03.1h.04zm-158.07 5.2l-.47 1.4c-.1.4-.3.8-.4 1.2 0 .2.5-1.3.9-2.6z"/>
  <path fill="#fff" d="M324.65 7.1h-.16.1zm0 0v74.85l57.24.32 57.2.33 7.5 2.7c11.1 4 16.7 7.4 24.5 15.3 22.7 22.6 23 58 .7 81.6-7.2 7.6-14.2 12.1-24.5 15.8-6.8 2.4-9 2.7-27.1 3.1l-19.8.5v-71.3h-76v147.1l60.7-.4c57.7-.4 61.2-.5 70.4-2.6 41.3-9.2 74.2-33.7 92.8-69.4l5.2-9.8-2.4-1.5c-1.3-.9-5.5-4.8-9.4-8.7-11.5-11.8-17.4-26.3-17.5-43.2 0-15.8 6.6-31.9 17.8-43.3 3.7-3.7 7.73-7.4 9.1-8.2l2.3-1.44-3.74-7.5c-16.6-33.2-46.8-58.5-82.13-69-16.2-4.8-20.84-5.1-83.88-5.1h-59.2zM262.4 17.7l.02.15 1.7 3.74-.07-.3c-.56-1.3-1.13-2.6-1.66-3.6zm-26 17.8l.4.72c-.14-.2-.25-.4-.4-.7v-.02zM83.7 76.42c.26.45-.17-.24 0 0zm140.17 4.18l.56 1.7-.54-1.67v-.02h-.1zm11.77.95l-.1.07v.03l.1-.1zm-.1.1l-.6.57h.7l-.1-.57zm-148.5 18.8c1.1.54 2.1 1.2 3.24 1.66h-.13l-3.1-1.6zm474.4 16.84h-.03.1zm-.03 0l-.2.1v.1l.28-.1zM71.1 135.9v.1h.08l-.07-.1zm486.1 32l-.06.1s.1.1.2.1l-.2-.1zm.14.2l.2.2s-.1-.1-.2-.1zm-340.2 55.8l-.4 1.9v.2l.3-2v-.1zM79.64 225l-.76.54.2-.25-.5.3-.2.3c.06-.1.15-.1.3-.2l.02-.07-.04.1.9-.6v-.1l.1-.1zm-.96.8l-.4.3-.3.4.3-.2.3-.33.1-.16zm-.4.3l.1-.18c-.04.03-.08.06-.1.1l-4.4 3.1.2-.1c1.1-.73 2.7-1.83 4.1-2.85l.1-.06zm-1.4 3.2l-.7.1-.2.4.9-.4v-.1zm-4.1.5c0 .1-.1.1 0 0z" class="highlight"/>
  <path fill="#fff" d="M244.27 7.1c-64.2 0-67.8.2-85.53 5.6-33.9 10.24-64 35.5-80.2 67.27l-4.3 8.38 2.9 2.02c1.6 1.1 5.7 4.96 9.2 8.55 22.9 23.74 22.6 62.33-.6 86.05-3.7 3.75-7.8 7.53-9.1 8.4l-2.4 1.55 2.6 5.8c4.3 9.34 15 24.62 23.7 33.88 22 23.3 53 38.5 84.7 41.5 4.2.4 32.4.8 62.8.9l55.2.2v-147h-76v71.3l-19.77-.5c-21.8-.5-25.77-1.3-37.5-7.4-12.1-6.3-23.1-19.2-27.8-32.5-4.8-13.7-3.53-31.6 3.24-45.6 4.1-8.4 16.7-21.3 25.3-25.7 12.8-6.7 12.1-6.62 75.27-7.05l57.23-.4v-75h-59.1l.2-.1zm249.98 16.96l.08.06v-.06h-.1zm.08.06c.04.45.1.76.1 1.02l.1-.18c.1-.16.2-.28.4-.4l-.6-.44zm-59.25 45.44c-.18.3-.34.53-.6.9-.18.3.65-.6.6-.9zM17.68 112.3c-.13.08-.05.04-.03.04.02 0 .03-.02.05-.03zm-2.46 1.35l-.15.14c-.26.2-.32.2.16-.2zm47.3 60.28l-.1.2.1-.2zm297.03 12.26c-.6.2-1.22.3-1.78.6l-.06.03 1.7-.5.2-.1v-.1zm185.15 61.1l-.1.06.1-.02h-.02l-.03-.04zm.2.2v.1l-.26.1.25-.2-.06-.1zm-.2.2h-.1l.1-.07zm-.1 0l-.3.14-.16.15.42-.3zm-.4.3l-.1.04.04-.05zm.1-.16v-.1l-.07.1h.04zm-158.1 5.2l-.48 1.4c-.1.4-.3.8-.4 1.2 0 .2.5-1.3.9-2.6z"/>
  <path fill="#fff" d="M300.4 17.67v.02l.02.1 1.7 3.7-.07-.3c-.56-1.28-1.13-2.53-1.66-3.6zm-26 17.8l.4.73c-.14-.2-.25-.4-.4-.7zM121.7 76.4c.26.46-.17-.23 0 0zm140.17 4.2l.56 1.67-.54-1.66h-.1zm11.77.93l-.1.07v.1l.1-.1zm-.1.1l-.6.57h.7l-.1-.5zm-148.5 18.82c1.1.54 2.1 1.2 3.24 1.66h-.13l-3.1-1.6zm-79.1 1.04c-14.82.3-29.26 8.7-36.17 23.4-2.4 5.1-2.68 6.9-2.68 16.7 0 9.8.2 11.6 2.6 16.7 3.1 6.7 10.5 14.9 16.3 18.4 2.3 1.3 6.6 3.1 9.6 4 6.9 1.9 18.6 1.4 25.3-1.1 28.7-10.8 34.7-50.3 10.7-69.3-7.6-6-16.7-8.8-25.6-8.6l-.1-.2zm63.17 34.4v.1h.1l-.02-.1zm146.1 88l-.4 1.9.1.2.38-2v-.1zM117.7 225l-.76.53.2-.25-.5.3-.2.3c0-.1.1-.1.3-.2v-.1l-.1.05.9-.6v-.2zm-.96.8l-.4.3-.3.4.3-.2.3-.34.1-.16zm-.4.3l.1-.2c-.1.04-.1.07-.1.1l-4.4 3.1.2-.1c1.1-.72 2.7-1.82 4.1-2.84l.1-.06zm-1.4 3.2l-.7.1-.2.4.9-.4v-.1zm-4.1.5c0 .1-.1.1 0 0z" class="highlight"/></svg>
